<?xml version="1.0" standalone="no"?>
<!DOCTYPE svg PUBLIC "-//W3C//DTD SVG 1.1//EN" "http://www.w3.org/Graphics/SVG/1.1/DTD/svg11.dtd" >
<svg xmlns="http://www.w3.org/2000/svg" xmlns:xlink="http://www.w3.org/1999/xlink" version="1.1">
<metadata>
Created by FontForge 20190801 at Thu Apr 17 09:59:03 2014
 By Unknown
Copyright \(c\) 2014 by Vyacheslav Kirilenko, Gayane Bagdasaryan. All rights reserved.
</metadata>
<defs>
<font id="Formular-Bold" horiz-adv-x="642" >
  <font-face 
    font-family="Formular"
    font-weight="700"
    font-stretch="normal"
    units-per-em="1000"
    panose-1="2 0 0 0 0 0 0 0 0 0"
    ascent="800"
    descent="-200"
    x-height="514"
    cap-height="714"
    bbox="-140 -232 1400 978"
    underline-thickness="50"
    underline-position="-100"
    unicode-range="U+000D-FEFF"
  />
<missing-glyph horiz-adv-x="517" 
d="M52 0v714h412v-714h-412zM126 67h266v580h-266v-580z" />
    <glyph glyph-name="fi" unicode="fi" horiz-adv-x="679" 
d="M368 397h-129v-397h-140v397h-75v117h75v37c0 128 87 176 203 176h66v-117h-64c-49 0 -65 -31 -65 -66v-30h129v-117zM605 602h-142v125h142v-125zM604 514v-514h-140v514h140z" />
    <glyph glyph-name="fl" unicode="fl" horiz-adv-x="678" 
d="M368 397h-129v-397h-140v397h-75v117h75v37c0 128 87 176 203 176h66v-117h-64c-49 0 -65 -31 -65 -66v-30h129v-117zM464 727h140v-727h-140v727z" />
    <glyph glyph-name=".notdef" horiz-adv-x="517" 
d="M52 0v714h412v-714h-412zM126 67h266v580h-266v-580z" />
    <glyph glyph-name="NULL" horiz-adv-x="0" 
 />
    <glyph glyph-name="NULL" horiz-adv-x="0" 
 />
    <glyph glyph-name="CR" unicode="&#xd;" horiz-adv-x="278" 
 />
    <glyph glyph-name="space" unicode=" " horiz-adv-x="278" 
 />
    <glyph glyph-name="exclam" unicode="!" horiz-adv-x="345" 
d="M102 714h141v-290l-26 -209h-89l-26 209v290zM249 0h-153v152h153v-152z" />
    <glyph glyph-name="quotedbl" unicode="&#x22;" horiz-adv-x="469" 
d="M72 427v287h127v-287h-127zM270 427v287h127v-287h-127z" />
    <glyph glyph-name="numbersign" unicode="#" horiz-adv-x="641" 
d="M63 520h119l29 180h108l-28 -180h113l29 180h108l-28 -180h97v-106h-114l-20 -128h101v-106h-117l-29 -180h-110l29 180h-113l-28 -180h-110l28 180h-96v106h113l21 128h-102v106zM274 414l-20 -128h113l20 128h-113z" />
    <glyph glyph-name="dollar" unicode="$" horiz-adv-x="653" 
d="M358 419l48 -9c111 -21 193 -80 193 -203c0 -111 -82 -209 -242 -220v-85h-66v86c-151 12 -232 97 -247 230h142c11 -63 53 -97 105 -105v192l-48 10c-116 24 -177 88 -177 189c0 108 81 199 225 210v84h67v-86c124 -13 209 -91 223 -205h-141c-8 43 -38 74 -82 81v-169z
M372 290l-14 3v-182c57 3 98 37 98 88s-33 80 -84 91zM209 510c0 -45 26 -67 82 -79v159c-48 -4 -82 -35 -82 -80z" />
    <glyph glyph-name="percent" unicode="%" horiz-adv-x="880" 
d="M203 714c112 0 167 -82 167 -189s-55 -189 -167 -189s-165 82 -165 189s53 189 165 189zM203 418c52 0 74 44 74 107c0 61 -22 107 -74 107c-51 0 -73 -46 -73 -107c0 -63 22 -107 73 -107zM676 365c111 0 166 -82 166 -189s-55 -189 -166 -189c-112 0 -167 82 -167 189
s55 189 167 189zM676 69c51 0 74 44 74 107c0 61 -23 107 -74 107c-52 0 -74 -46 -74 -107c0 -63 22 -107 74 -107zM280 0h-102l424 700h101z" />
    <glyph glyph-name="ampersand" unicode="&#x26;" horiz-adv-x="767" 
d="M534 354h135c-11 -73 -38 -144 -78 -201l151 -153h-169l-54 55h-26c-60 -47 -125 -68 -197 -68c-145 0 -244 76 -244 209c0 93 62 153 118 188v26c-37 45 -59 79 -59 138c0 96 72 166 187 166c112 0 199 -62 199 -165c0 -75 -51 -120 -126 -174l126 -131
c19 31 32 71 37 110zM304 107c44 0 83 15 116 46l-152 156l-23 -16c-36 -25 -54 -54 -54 -93c0 -57 44 -93 113 -93zM302 609c-39 0 -67 -23 -67 -63c0 -44 36 -73 60 -97c40 32 77 53 77 98c0 39 -30 62 -70 62z" />
    <glyph glyph-name="quotesingle" unicode="'" horiz-adv-x="271" 
d="M72 427v287h127v-287h-127z" />
    <glyph glyph-name="parenleft" unicode="(" horiz-adv-x="325" 
d="M165 311c0 -204 82 -349 156 -452h-122c-79 95 -155 242 -155 452c0 209 75 352 152 448h122c-72 -101 -153 -247 -153 -448z" />
    <glyph glyph-name="parenright" unicode=")" horiz-adv-x="325" 
d="M160 311c0 201 -81 347 -153 448h122c77 -96 152 -239 152 -448c0 -210 -76 -357 -155 -452h-122c74 103 156 248 156 452z" />
    <glyph glyph-name="asterisk" unicode="*" horiz-adv-x="496" 
d="M200 714h97l-7 -159l150 56l31 -93l-154 -44l99 -125l-79 -58l-90 132l-88 -132l-78 58l98 125l-153 44l30 93l149 -56z" />
    <glyph glyph-name="plus" unicode="+" horiz-adv-x="673" 
d="M277 349v197h118v-197h199v-119h-199v-198h-118v198h-198v119h198z" />
    <glyph glyph-name="comma" unicode="," horiz-adv-x="293" 
d="M137 0h-68v152h154v-177l-77 -117h-85l76 117v25z" />
    <glyph glyph-name="hyphen" unicode="-" horiz-adv-x="397" 
d="M350 222h-303v121h303v-121z" />
    <glyph glyph-name="period" unicode="." horiz-adv-x="293" 
d="M223 0h-154v152h154v-152z" />
    <glyph glyph-name="slash" unicode="/" horiz-adv-x="439" 
d="M115 -141h-117l302 900h114z" />
    <glyph glyph-name="zero" unicode="0" horiz-adv-x="646" 
d="M323 714c155 0 274 -109 274 -364c0 -254 -119 -363 -274 -363s-274 109 -274 363c0 255 119 364 274 364zM323 115c106 0 130 123 130 235c0 113 -24 236 -130 236c-105 0 -129 -123 -129 -236c0 -112 24 -235 129 -235z" />
    <glyph glyph-name="one" unicode="1" horiz-adv-x="532" 
d="M53 0v125h158v431h-25l-134 -91v143l134 92h169v-575h144v-125h-446z" />
    <glyph glyph-name="two" unicode="2" horiz-adv-x="607" 
d="M193 489h-144c8 147 106 225 256 225c141 0 243 -81 243 -225c0 -91 -54 -165 -130 -224l-147 -114v-26h296v-125h-517v150l240 179c56 40 113 90 113 157c0 68 -42 100 -102 100c-59 0 -101 -29 -108 -97z" />
    <glyph glyph-name="three" unicode="3" horiz-adv-x="604" 
d="M73 700h450v-147l-134 -99v-27c94 -8 172 -76 172 -201c0 -148 -111 -239 -267 -239c-157 0 -263 98 -266 226h144c8 -64 55 -98 122 -98c76 0 123 44 123 112c0 69 -43 115 -123 115c-26 0 -47 -2 -64 -7v119l134 99v26h-291v121z" />
    <glyph glyph-name="four" unicode="4" horiz-adv-x="634" 
d="M508 275h87v-125h-87v-150h-139v150h-333v151l306 399h166v-425zM171 275h203v263h-26l-177 -237v-26z" />
    <glyph glyph-name="five" unicode="5" horiz-adv-x="624" 
d="M353 477c128 0 224 -95 224 -236c0 -152 -110 -254 -259 -254c-164 0 -258 97 -266 226h144c8 -64 49 -98 117 -98c75 0 120 49 120 124c0 83 -50 125 -119 125c-47 0 -84 -16 -111 -52h-134l31 388h432v-121h-320l-11 -143h26c28 21 59 41 126 41z" />
    <glyph glyph-name="six" unicode="6" horiz-adv-x="622" 
d="M359 465c126 0 226 -94 226 -230s-100 -248 -257 -248c-160 0 -279 93 -279 350c0 218 88 377 283 377c127 0 222 -82 235 -185h-143c-11 39 -39 66 -95 66c-80 0 -135 -60 -142 -185h26c22 25 64 55 146 55zM325 107c68 0 115 43 115 123s-48 121 -116 121
s-116 -40 -116 -120s49 -124 117 -124z" />
    <glyph glyph-name="seven" unicode="7" horiz-adv-x="573" 
d="M525 550l-280 -550h-150l281 550v25h-329v125h478v-150z" />
    <glyph glyph-name="eight" unicode="8" horiz-adv-x="632" 
d="M482 384v-26c45 -19 104 -69 104 -161c0 -113 -94 -210 -270 -210s-270 97 -270 210c0 92 59 142 104 161v26c-36 19 -81 61 -81 142c0 105 92 188 247 188s247 -83 247 -188c0 -79 -47 -124 -81 -142zM316 603c-65 0 -108 -40 -108 -92c0 -55 43 -93 108 -93
c67 0 108 38 108 93c0 52 -41 92 -108 92zM316 107c84 0 127 47 127 104c0 56 -43 104 -127 104c-85 0 -127 -48 -127 -104c0 -57 42 -104 127 -104z" />
    <glyph glyph-name="nine" unicode="9" horiz-adv-x="622" 
d="M263 236c-126 0 -226 94 -226 230s100 248 257 248c160 0 279 -93 279 -350c0 -218 -88 -377 -283 -377c-127 0 -222 82 -235 185h143c11 -39 39 -66 95 -66c80 0 135 60 142 185h-26c-22 -25 -64 -55 -146 -55zM297 594c-68 0 -115 -43 -115 -123s48 -121 116 -121
s116 40 116 120s-49 124 -117 124z" />
    <glyph glyph-name="colon" unicode=":" horiz-adv-x="293" 
d="M223 0h-154v152h154v-152zM223 362h-154v152h154v-152z" />
    <glyph glyph-name="semicolon" unicode=";" horiz-adv-x="293" 
d="M137 0h-68v152h154v-177l-77 -117h-85l76 117v25zM223 362h-154v152h154v-152z" />
    <glyph glyph-name="less" unicode="&#x3c;" horiz-adv-x="662" 
d="M583 137v-123l-504 227v96l504 227v-123l-315 -139v-26z" />
    <glyph glyph-name="equal" unicode="=" horiz-adv-x="672" 
d="M593 245v-119h-514v119h514zM593 452v-119h-514v119h514z" />
    <glyph glyph-name="greater" unicode="&#x3e;" horiz-adv-x="662" 
d="M79 14v123l314 139v26l-314 139v123l504 -227v-96z" />
    <glyph glyph-name="question" unicode="?" horiz-adv-x="578" 
d="M280 727c165 0 245 -92 245 -208c0 -98 -54 -141 -121 -186c-47 -32 -64 -49 -64 -92v-26h-143v26c0 80 29 115 98 166c49 36 85 55 85 111c0 47 -32 85 -96 85c-65 0 -102 -30 -105 -105h-143c3 127 83 229 244 229zM344 0h-153v152h153v-152z" />
    <glyph glyph-name="at" unicode="@" horiz-adv-x="976" 
d="M688 -61l29 -53c-73 -48 -160 -76 -264 -76c-246 0 -402 162 -402 400c0 275 189 484 472 484c216 0 402 -138 402 -367c0 -163 -78 -294 -226 -294c-68 0 -109 22 -126 61h-19c-23 -31 -63 -61 -127 -61c-101 0 -161 69 -161 182c0 132 84 250 213 250
c53 0 87 -24 100 -47h19l8 33h112l-42 -254c-1 -8 -5 -32 -5 -45c0 -39 20 -53 55 -53c60 0 131 64 131 228c0 179 -131 307 -342 307c-225 0 -396 -167 -396 -423c0 -176 101 -341 339 -341c87 0 163 25 230 69zM460 123c65 0 109 72 109 157c0 79 -38 96 -73 96
c-67 0 -108 -76 -108 -157c0 -67 29 -96 72 -96z" />
    <glyph glyph-name="A" unicode="A" horiz-adv-x="722" 
d="M553 0l-58 193h-272l-58 -193h-147l227 714h231l228 -714h-151zM336 571l-75 -248h194l-75 248h-44z" />
    <glyph glyph-name="B" unicode="B" horiz-adv-x="724" 
d="M580 384v-26c51 -23 93 -80 93 -151c0 -119 -77 -207 -246 -207h-344v714h335c157 0 235 -87 235 -189c0 -64 -28 -117 -73 -141zM232 431h168c67 0 100 27 100 80s-34 79 -101 79h-167v-159zM232 127h173c75 0 115 28 115 88c0 61 -38 91 -113 91h-175v-179z" />
    <glyph glyph-name="C" unicode="C" horiz-adv-x="737" 
d="M534 228h155c-21 -142 -131 -241 -298 -241c-218 0 -342 151 -342 370s125 370 342 370c158 0 267 -90 291 -221h-156c-17 59 -62 88 -135 88c-128 0 -189 -105 -189 -237s61 -237 189 -237c77 0 128 40 143 108z" />
    <glyph glyph-name="D" unicode="D" horiz-adv-x="761" 
d="M83 714h298c219 0 331 -142 331 -357c0 -214 -112 -357 -331 -357h-298v714zM232 133h130c144 0 197 100 197 224s-53 224 -197 224h-130v-448z" />
    <glyph glyph-name="E" unicode="E" horiz-adv-x="666" 
d="M232 133h390v-133h-539v714h528v-133h-379v-150h295v-130h-295v-168z" />
    <glyph glyph-name="F" unicode="F" horiz-adv-x="650" 
d="M610 581h-378v-164h298v-130h-298v-287h-149v714h527v-133z" />
    <glyph glyph-name="G" unicode="G" horiz-adv-x="761" 
d="M389 397h318v-84c0 -166 -89 -326 -313 -326s-345 154 -345 370c0 215 122 370 346 370c163 0 266 -86 293 -217h-155c-16 53 -62 84 -139 84c-128 0 -192 -101 -192 -237s64 -238 193 -238c110 0 160 65 163 156h-169v122z" />
    <glyph glyph-name="H" unicode="H" horiz-adv-x="779" 
d="M548 714h149v-714h-149v299h-316v-299h-149v714h149v-278h316v278z" />
    <glyph glyph-name="I" unicode="I" horiz-adv-x="324" 
d="M88 714h149v-714h-149v714z" />
    <glyph glyph-name="J" unicode="J" horiz-adv-x="604" 
d="M280 -13c-145 0 -246 84 -251 240h148c5 -71 39 -107 102 -107c61 0 95 41 95 121v473h149v-474c0 -160 -91 -253 -243 -253z" />
    <glyph glyph-name="K" unicode="K" horiz-adv-x="753" 
d="M83 0v714h149v-295l292 295h174l-214 -224l248 -490h-164l-181 359h-26l-129 -129v-230h-149z" />
    <glyph glyph-name="L" unicode="L" horiz-adv-x="651" 
d="M232 136h378v-136h-527v714h149v-578z" />
    <glyph glyph-name="M" unicode="M" horiz-adv-x="883" 
d="M83 0v714h229l117 -288h26l116 288h230v-714h-139v532h-26l-120 -288h-149l-119 288h-26v-532h-139z" />
    <glyph glyph-name="N" unicode="N" horiz-adv-x="782" 
d="M564 714h136v-714h-193l-262 484h-26v-484h-136v714h193l262 -484h26v484z" />
    <glyph glyph-name="O" unicode="O" horiz-adv-x="794" 
d="M397 727c227 0 348 -160 348 -370s-121 -370 -348 -370s-348 160 -348 370s121 370 348 370zM397 120c134 0 195 105 195 237s-61 237 -195 237c-132 0 -195 -105 -195 -237s63 -237 195 -237z" />
    <glyph glyph-name="P" unicode="P" horiz-adv-x="715" 
d="M83 714h326c164 0 258 -84 258 -227c0 -145 -94 -231 -258 -231h-177v-256h-149v714zM232 387h156c92 0 126 35 126 98c0 64 -34 98 -126 98h-156v-196z" />
    <glyph glyph-name="Q" unicode="Q" horiz-adv-x="794" 
d="M397 727c227 0 348 -160 348 -370c0 -115 -36 -212 -105 -280l91 -154h-135l-53 91c-43 -17 -90 -27 -146 -27c-227 0 -348 160 -348 370s121 370 348 370zM397 120c27 0 53 5 77 14l-113 196h130l69 -117c21 41 32 89 32 144c0 132 -61 237 -195 237
c-132 0 -195 -105 -195 -237s63 -237 195 -237z" />
    <glyph glyph-name="R" unicode="R" horiz-adv-x="726" 
d="M83 714h336c159 0 251 -82 251 -222c0 -89 -38 -155 -106 -191l107 -301h-150l-96 269h-193v-269h-149v714zM232 583v-187h166c88 0 120 34 120 94c0 67 -36 93 -135 93h-151z" />
    <glyph glyph-name="S" unicode="S" horiz-adv-x="690" 
d="M619 518h-152c-13 57 -55 81 -130 81c-63 0 -117 -25 -117 -81c0 -47 40 -64 89 -73l133 -24c112 -21 194 -80 194 -209c0 -119 -92 -225 -287 -225c-181 0 -290 90 -305 231h152c13 -79 82 -103 159 -103c79 0 131 33 131 90c0 56 -37 78 -97 89l-136 24
c-119 21 -183 87 -183 195c0 117 96 214 269 214c156 0 264 -80 280 -209z" />
    <glyph glyph-name="T" unicode="T" horiz-adv-x="625" 
d="M609 714v-131h-222v-583h-149v583h-222v131h593z" />
    <glyph glyph-name="U" unicode="U" horiz-adv-x="760" 
d="M530 714h149v-451c0 -177 -107 -276 -300 -276c-191 0 -298 99 -298 276v451h149v-448c0 -88 54 -146 150 -146c97 0 150 58 150 146v448z" />
    <glyph glyph-name="V" unicode="V" horiz-adv-x="706" 
d="M229 0l-211 714h155l158 -570h46l158 570h153l-211 -714h-248z" />
    <glyph glyph-name="W" unicode="W" horiz-adv-x="927" 
d="M371 498h186l90 -321h25l61 537h141l-85 -714h-218l-94 359h-26l-95 -359h-218l-85 714h143l60 -537h26z" />
    <glyph glyph-name="X" unicode="X" horiz-adv-x="694" 
d="M511 0l-149 294h-31l-152 -294h-160l197 375l-170 339h153l133 -262h31l137 262h151l-173 -335l197 -379h-164z" />
    <glyph glyph-name="Y" unicode="Y" horiz-adv-x="679" 
d="M325 429h28l153 285h158l-250 -460v-254h-150v254l-249 460h157z" />
    <glyph glyph-name="Z" unicode="Z" horiz-adv-x="666" 
d="M606 714v-161l-372 -392v-28h388v-133h-578v161l374 392v28h-347v133h535z" />
    <glyph glyph-name="bracketleft" unicode="[" horiz-adv-x="381" 
d="M328 -141h-259v900h259v-103h-138v-694h138v-103z" />
    <glyph glyph-name="backslash" unicode="\" horiz-adv-x="439" 
d="M441 -141h-117l-299 900h114z" />
    <glyph glyph-name="bracketright" unicode="]" horiz-adv-x="381" 
d="M312 -141h-259v103h138v694h-138v103h259v-900z" />
    <glyph glyph-name="asciicircum" unicode="^" horiz-adv-x="588" 
d="M168 273h-130l211 420h91l210 -420h-129l-114 231h-26z" />
    <glyph glyph-name="underscore" unicode="_" horiz-adv-x="513" 
d="M514 -154h-515v91h515v-91z" />
    <glyph glyph-name="grave" unicode="`" horiz-adv-x="320" 
d="M156 582l-116 145h147l93 -145h-124z" />
    <glyph glyph-name="a" unicode="a" horiz-adv-x="586" 
d="M390 0v44h-26c-31 -36 -76 -57 -144 -57c-116 0 -182 80 -182 171c0 80 57 171 209 171h137v13c0 53 -30 80 -91 80c-56 0 -83 -20 -87 -55h-139c3 99 95 160 219 160c139 0 233 -55 233 -193v-334h-129zM269 98c68 0 115 44 115 108v32h-110c-60 0 -96 -22 -96 -69
s34 -71 91 -71z" />
    <glyph glyph-name="b" unicode="b" 
d="M379 527c135 0 218 -115 218 -270s-82 -270 -218 -270c-72 0 -116 25 -144 60h-26v-47h-135v727h140v-260h26c27 36 68 60 139 60zM334 103c84 0 123 69 123 154s-39 153 -123 153c-87 0 -125 -72 -125 -153s38 -154 125 -154z" />
    <glyph glyph-name="c" unicode="c" horiz-adv-x="583" 
d="M401 173h138c-13 -111 -106 -186 -235 -186c-159 0 -259 107 -259 270c0 162 100 270 259 270c129 0 218 -72 231 -177h-139c-11 39 -40 60 -91 60c-87 0 -120 -69 -120 -152c0 -84 34 -155 120 -155c56 0 88 26 96 70z" />
    <glyph glyph-name="d" unicode="d" 
d="M263 527c71 0 112 -24 139 -60h26v260h140v-727h-135v47h-26c-28 -35 -72 -60 -144 -60c-136 0 -218 115 -218 270s82 270 218 270zM308 103c87 0 125 73 125 154s-38 153 -125 153c-84 0 -123 -68 -123 -153s39 -154 123 -154z" />
    <glyph glyph-name="e" unicode="e" horiz-adv-x="597" 
d="M552 283v-42h-368c4 -88 45 -138 125 -138c53 0 83 19 96 54h142c-21 -103 -100 -170 -240 -170c-163 0 -262 108 -262 272s100 268 259 268c156 0 245 -104 248 -244zM303 422c-67 0 -101 -36 -114 -88h220c-8 52 -42 88 -106 88z" />
    <glyph glyph-name="f" unicode="f" horiz-adv-x="399" 
d="M368 397h-129v-397h-140v397h-75v117h75v37c0 128 87 176 203 176h66v-117h-64c-49 0 -65 -31 -65 -66v-30h129v-117z" />
    <glyph glyph-name="g" unicode="g" horiz-adv-x="643" 
d="M434 514h135v-489c0 -146 -106 -236 -258 -236c-141 0 -236 60 -247 173h139c7 -42 42 -63 106 -63c88 0 120 60 120 138v30h-26c-23 -32 -62 -59 -134 -59c-137 0 -224 107 -224 259c0 151 88 260 225 260c72 0 118 -29 138 -60h26v47zM308 125c83 0 126 64 126 142
c0 80 -43 143 -126 143c-79 0 -123 -60 -123 -143s44 -142 123 -142z" />
    <glyph glyph-name="h" unicode="h" horiz-adv-x="635" 
d="M568 0h-140v291c0 72 -32 112 -100 112c-71 0 -114 -61 -114 -130v-273h-140v727h140v-260h26c29 39 72 60 140 60c128 0 188 -79 188 -211v-316z" />
    <glyph glyph-name="i" unicode="i" horiz-adv-x="290" 
d="M216 602h-142v125h142v-125zM215 514v-514h-140v514h140z" />
    <glyph glyph-name="j" unicode="j" horiz-adv-x="301" 
d="M227 602h-142v125h142v-125zM29 -200h-65v117h46c56 0 76 31 76 79v518h140v-530c0 -135 -85 -184 -197 -184z" />
    <glyph glyph-name="k" unicode="k" horiz-adv-x="599" 
d="M588 0h-147l-119 241h-26l-81 -91v-150h-141v727h141v-414l190 201h156l-146 -159z" />
    <glyph glyph-name="l" unicode="l" horiz-adv-x="288" 
d="M74 727h140v-727h-140v727z" />
    <glyph glyph-name="m" unicode="m" horiz-adv-x="906" 
d="M660 527c123 0 179 -79 179 -203v-324h-140v297c0 68 -22 106 -78 106c-64 0 -94 -49 -94 -116v-287h-140v297c0 67 -22 106 -78 106c-67 0 -95 -58 -95 -127v-276h-140v514h135v-47h26c25 40 68 60 128 60c61 0 104 -20 131 -60h26c30 40 77 60 140 60z" />
    <glyph glyph-name="n" unicode="n" horiz-adv-x="635" 
d="M568 0h-140v291c0 72 -35 112 -100 112c-71 0 -114 -61 -114 -130v-273h-140v514h135v-47h26c31 40 78 60 143 60c129 0 190 -79 190 -211v-316z" />
    <glyph glyph-name="o" unicode="o" horiz-adv-x="622" 
d="M311 527c164 0 266 -109 266 -270s-102 -270 -266 -270c-162 0 -266 109 -266 270s104 270 266 270zM311 103c88 0 126 71 126 154c0 82 -38 153 -126 153c-87 0 -126 -71 -126 -153c0 -83 39 -154 126 -154z" />
    <glyph glyph-name="p" unicode="p" 
d="M334 410c-87 0 -125 -72 -125 -153s38 -154 125 -154c84 0 123 69 123 154s-39 153 -123 153zM74 514h135v-47h26c28 35 72 60 144 60c136 0 218 -115 218 -270c0 -157 -83 -270 -218 -270c-71 0 -112 24 -139 60h-26v-247h-140v714z" />
    <glyph glyph-name="q" unicode="q" 
d="M308 410c-84 0 -123 -68 -123 -153s39 -154 123 -154c87 0 125 73 125 154s-38 153 -125 153zM433 514h135v-714h-140v247h-26c-27 -36 -68 -60 -139 -60c-136 0 -218 113 -218 270c0 155 82 270 218 270c72 0 116 -25 144 -60h26v47z" />
    <glyph glyph-name="r" unicode="r" horiz-adv-x="448" 
d="M421 514v-130h-50c-108 0 -157 -56 -157 -159v-225h-140v514h135v-58h26c16 24 56 58 138 58h48z" />
    <glyph glyph-name="s" unicode="s" horiz-adv-x="546" 
d="M492 373h-139c-7 35 -38 46 -83 46c-43 0 -75 -13 -75 -44c0 -28 20 -35 55 -42l93 -14c97 -15 164 -62 164 -165c0 -86 -77 -167 -228 -167c-156 0 -231 68 -242 175h139c7 -47 43 -67 102 -67c56 0 89 19 89 56c0 35 -23 48 -74 57l-100 16c-81 15 -138 54 -138 142
s67 161 219 161c129 0 207 -62 218 -154z" />
    <glyph glyph-name="t" unicode="t" horiz-adv-x="405" 
d="M239 514h113v-117h-113v-221c0 -35 18 -57 66 -57h47v-119h-49c-117 0 -204 33 -204 159v238h-75v117h75v144h140v-144z" />
    <glyph glyph-name="u" unicode="u" horiz-adv-x="635" 
d="M67 514h140v-291c0 -72 35 -112 100 -112c71 0 114 61 114 130v273h140v-514h-135v47h-26c-31 -40 -78 -60 -143 -60c-129 0 -190 79 -190 211v316z" />
    <glyph glyph-name="v" unicode="v" horiz-adv-x="578" 
d="M166 0l-146 514h143l106 -389h43l102 389h143l-148 -514h-243z" />
    <glyph glyph-name="w" unicode="w" horiz-adv-x="750" 
d="M306 373h141l64 -212h26l43 353h131l-71 -514h-179l-73 241h-26l-73 -241h-180l-70 514h133l44 -353h26z" />
    <glyph glyph-name="x" unicode="x" horiz-adv-x="604" 
d="M420 0l-100 189h-37l-102 -189h-148l147 264l-132 250h145l92 -177h37l94 177h143l-134 -248l146 -266h-151z" />
    <glyph glyph-name="y" unicode="y" horiz-adv-x="594" 
d="M267 -200h-140l109 253l-218 461h146l128 -274h26l118 274h141z" />
    <glyph glyph-name="z" unicode="z" horiz-adv-x="554" 
d="M504 0h-454v142l257 229v26h-241v117h430v-143l-257 -229v-26h265v-116z" />
    <glyph glyph-name="braceleft" unicode="{" horiz-adv-x="427" 
d="M201 322v-26c39 -12 67 -49 67 -113v-115c0 -72 26 -106 89 -106h35v-103h-56c-119 0 -189 72 -189 183v118c0 61 -18 95 -71 95h-24v108h24c53 0 71 34 71 95v118c0 111 70 183 189 183h56v-103h-35c-63 0 -89 -34 -89 -106v-115c0 -64 -28 -101 -67 -113z" />
    <glyph glyph-name="bar" unicode="|" horiz-adv-x="270" 
d="M79 -141v900h112v-900h-112z" />
    <glyph glyph-name="braceright" unicode="}" horiz-adv-x="427" 
d="M226 296v26c-39 12 -67 49 -67 113v115c0 72 -26 106 -89 106h-35v103h56c119 0 189 -72 189 -183v-118c0 -61 18 -95 71 -95h24v-108h-24c-53 0 -71 -34 -71 -95v-118c0 -111 -70 -183 -189 -183h-56v103h35c63 0 89 34 89 106v115c0 64 28 101 67 113z" />
    <glyph glyph-name="asciitilde" unicode="~" horiz-adv-x="671" 
d="M496 368h96c0 -123 -57 -177 -144 -177c-93 0 -158 91 -223 91c-31 0 -50 -20 -50 -71h-96c0 123 56 177 143 177c94 0 160 -91 224 -91c31 0 50 20 50 71z" />
    <glyph glyph-name="uni00A0" unicode="&#xa0;" horiz-adv-x="278" 
 />
    <glyph glyph-name="exclamdown" unicode="&#xa1;" horiz-adv-x="345" 
d="M243 -200h-141v290l26 209h89l26 -209v-290zM249 362h-153v152h153v-152z" />
    <glyph glyph-name="cent" unicode="&#xa2;" horiz-adv-x="583" 
d="M401 173h138c-13 -105 -95 -177 -212 -185v-68h-53v69c-141 11 -229 116 -229 268s88 255 229 268v69h53v-68c117 -8 195 -77 208 -176h-139c-9 32 -32 55 -69 59v-304c41 4 67 29 74 68zM185 258c0 -72 25 -140 89 -151v300c-64 -13 -89 -77 -89 -149z" />
    <glyph glyph-name="sterling" unicode="&#xa3;" horiz-adv-x="647" 
d="M249 125h365v-125h-568v125h17c53 0 69 34 69 86v62h-85v112h85v99c0 135 79 230 228 230c148 0 224 -91 229 -217h-144c-3 59 -27 89 -83 89c-57 0 -87 -35 -87 -102v-99h215v-112h-215v-47c0 -37 -6 -56 -26 -75v-26z" />
    <glyph glyph-name="currency" unicode="&#xa4;" horiz-adv-x="722" 
d="M581 0l-69 67c-43 -31 -94 -48 -150 -48c-57 0 -109 17 -152 48l-68 -67l-63 62l67 68c-31 44 -48 97 -48 153c0 55 16 106 48 151l-67 68l63 63l68 -68c43 31 95 48 152 48c56 0 107 -17 150 -48l69 68l62 -63l-67 -69c31 -43 48 -94 48 -150s-17 -108 -48 -152l67 -69z
M362 104c95 0 169 77 169 179c0 100 -74 176 -169 176c-96 0 -172 -76 -172 -176c0 -102 76 -179 172 -179z" />
    <glyph glyph-name="yen" unicode="&#xa5;" horiz-adv-x="655" 
d="M81 317v69h94l-150 314h144l144 -314h28l145 314h144l-150 -314h93v-69h-126l-29 -61h155v-69h-174v-187h-144v187h-174v69h156l-30 61h-126z" />
    <glyph glyph-name="brokenbar" unicode="&#xa6;" horiz-adv-x="270" 
d="M79 407v352h112v-352h-112zM79 -141v352h112v-352h-112z" />
    <glyph glyph-name="section" unicode="&#xa7;" horiz-adv-x="631" 
d="M237 366c-27 -9 -56 -35 -56 -74s21 -62 69 -75c31 -10 108 -32 145 -43c24 11 54 37 54 74c0 39 -20 60 -68 75c-30 11 -107 32 -144 43zM577 269c0 -71 -54 -117 -90 -130v-26c27 -21 47 -58 47 -111c0 -99 -87 -176 -227 -176c-132 0 -223 70 -230 206h129
c4 -60 39 -95 107 -95c64 0 92 32 92 69c0 33 -23 55 -68 68l-131 36c-100 28 -153 73 -153 161c0 74 53 117 92 130v26c-29 23 -47 58 -47 111c0 100 85 176 225 176c131 0 222 -68 229 -204h-128c-4 60 -39 93 -107 93c-65 0 -91 -33 -91 -68c0 -33 22 -56 67 -69
c177 -51 284 -66 284 -197z" />
    <glyph glyph-name="dieresis" unicode="&#xa8;" horiz-adv-x="394" 
d="M354 602h-117v125h117v-125zM158 602h-118v125h118v-125z" />
    <glyph glyph-name="copyright" unicode="&#xa9;" horiz-adv-x="850" 
d="M514 298h87c-13 -80 -72 -139 -168 -139c-120 0 -185 85 -185 197c0 113 65 198 185 198c93 0 153 -53 165 -129h-88c-8 35 -34 52 -77 52c-68 0 -96 -50 -96 -121c0 -69 28 -120 96 -120c47 0 74 21 81 62zM425 727c210 0 371 -158 371 -370s-160 -370 -371 -370
c-212 0 -370 158 -370 370s161 370 370 370zM425 47c178 0 306 134 306 310c0 177 -128 311 -306 311s-304 -134 -304 -311c0 -178 126 -310 304 -310z" />
    <glyph glyph-name="ordfeminine" unicode="&#xaa;" horiz-adv-x="438" 
d="M292 335v33h-16c-23 -25 -57 -42 -108 -42c-87 0 -133 60 -133 125c0 60 41 125 150 125h103v12c0 39 -23 58 -70 58c-43 0 -62 -15 -67 -43h-94c4 72 66 118 157 118c100 0 167 -41 167 -139v-247h-89zM198 403c51 0 90 34 90 82v27h-83c-47 0 -76 -21 -76 -54
c0 -36 28 -55 69 -55z" />
    <glyph glyph-name="guillemotleft" unicode="&#xab;" horiz-adv-x="657" 
d="M181 302v-26l171 -183h-151l-149 155v82l149 154h151zM434 302v-26l171 -183h-151l-149 155v82l149 154h151z" />
    <glyph glyph-name="logicalnot" unicode="&#xac;" horiz-adv-x="682" 
d="M485 100v192h-406v119h524v-311h-118z" />
    <glyph glyph-name="uni00AD" unicode="&#xad;" horiz-adv-x="396" 
d="M350 222h-303v121h303v-121z" />
    <glyph glyph-name="registered" unicode="&#xae;" horiz-adv-x="850" 
d="M280 547h182c85 0 134 -44 134 -120c0 -47 -18 -80 -55 -101l57 -160h-88l-51 142h-93v-142h-86v381zM366 381h82c43 0 60 17 60 45c0 29 -17 46 -60 46h-82v-91zM425 727c210 0 371 -158 371 -370s-160 -370 -371 -370c-212 0 -370 158 -370 370s161 370 370 370z
M425 47c178 0 306 134 306 310c0 177 -128 311 -306 311s-304 -134 -304 -311c0 -178 126 -310 304 -310z" />
    <glyph glyph-name="overscore" unicode="&#xaf;" horiz-adv-x="382" 
d="M342 619h-302v85h302v-85z" />
    <glyph glyph-name="degree" unicode="&#xb0;" horiz-adv-x="464" 
d="M429 523c0 -113 -85 -197 -198 -197c-112 0 -196 84 -196 197s84 198 196 198c113 0 198 -85 198 -198zM231 410c63 0 108 49 108 113s-45 114 -108 114s-107 -50 -107 -114s44 -113 107 -113z" />
    <glyph glyph-name="plusminus" unicode="&#xb1;" horiz-adv-x="673" 
d="M277 404v165h118v-165h199v-119h-199v-166h199v-119h-515v119h198v166h-197v119h197z" />
    <glyph glyph-name="twosuperior" unicode="&#xb2;" horiz-adv-x="370" 
d="M178 411h156v-78h-299v96l111 69c45 27 86 56 86 93c0 33 -20 49 -51 49c-32 0 -54 -15 -55 -51h-91c3 88 61 132 149 132c81 0 139 -44 139 -125c0 -56 -32 -93 -75 -121l-70 -45v-19z" />
    <glyph glyph-name="threesuperior" unicode="&#xb3;" horiz-adv-x="369" 
d="M245 581v-18c45 -7 89 -41 89 -106c0 -80 -62 -131 -151 -131c-93 0 -151 55 -154 131h90c3 -35 29 -50 64 -50c39 0 61 20 61 52c0 35 -24 53 -60 53c-17 0 -28 -2 -37 -5v72l59 39v18h-151v78h260v-94z" />
    <glyph glyph-name="acute" unicode="&#xb4;" horiz-adv-x="320" 
d="M280 727l-117 -145h-123l92 145h148z" />
    <glyph glyph-name="mu" unicode="&#xb5;" 
d="M74 514h140v-291c0 -72 35 -112 100 -112c71 0 114 61 114 130v273h140v-514h-135v47h-26c-31 -40 -78 -60 -143 -60c-17 0 -33 2 -50 5v-192h-140v714z" />
    <glyph glyph-name="paragraph" unicode="&#xb6;" horiz-adv-x="712" 
d="M372 -177h-118v491c-120 0 -220 60 -220 200s89 200 220 200h414v-98h-80v-793h-118v793h-98v-793z" />
    <glyph glyph-name="middot" unicode="&#xb7;" horiz-adv-x="293" 
d="M223 264h-154v152h154v-152z" />
    <glyph glyph-name="cedilla" unicode="&#xb8;" horiz-adv-x="297" 
d="M107 22h51l-30 -80h14c9 7 22 10 39 10c43 0 77 -33 77 -86c0 -48 -33 -95 -113 -95c-68 0 -102 41 -105 81h72c3 -13 14 -25 35 -25s36 14 36 35s-15 34 -36 34c-13 0 -23 -4 -31 -12h-62z" />
    <glyph glyph-name="onesuperior" unicode="&#xb9;" horiz-adv-x="336" 
d="M216 411h84v-78h-265v78h90v208h-19l-71 -43v85l91 53h90v-303z" />
    <glyph glyph-name="ordmasculine" unicode="&#xba;" horiz-adv-x="455" 
d="M227 721c117 0 192 -85 192 -197c0 -114 -75 -198 -192 -198s-192 84 -192 198c0 112 75 197 192 197zM227 409c67 0 98 54 98 115c0 60 -31 114 -98 114s-98 -54 -98 -114c0 -61 31 -115 98 -115z" />
    <glyph glyph-name="guillemotright" unicode="&#xbb;" horiz-adv-x="657" 
d="M476 276v26l-171 182h151l149 -154v-82l-149 -155h-151zM223 276v26l-171 182h151l149 -154v-82l-149 -155h-151z" />
    <glyph glyph-name="onequarter" unicode="&#xbc;" horiz-adv-x="876" 
d="M284 0h-102l424 700h101zM216 411h84v-78h-265v78h90v208h-19l-71 -43v85l91 53h90v-303zM794 154h46v-78h-46v-76h-88v76h-181v92l163 213h106v-227zM609 154h100v126h-19l-81 -108v-18z" />
    <glyph glyph-name="onehalf" unicode="&#xbd;" horiz-adv-x="898" 
d="M284 0h-102l424 700h101zM216 411h84v-78h-265v78h90v208h-19l-71 -43v85l91 53h90v-303zM706 78h156v-78h-299v96l111 69c45 27 86 56 86 93c0 33 -20 49 -51 49c-32 0 -54 -15 -55 -51h-91c3 88 61 132 149 132c81 0 139 -44 139 -125c0 -56 -32 -93 -75 -121l-70 -45
v-19z" />
    <glyph glyph-name="threequarters" unicode="&#xbe;" horiz-adv-x="880" 
d="M289 0h-102l424 700h101zM799 154h46v-78h-46v-76h-88v76h-181v92l163 213h106v-227zM614 154h100v126h-19l-81 -108v-18zM245 581v-18c45 -7 89 -41 89 -106c0 -80 -62 -131 -151 -131c-93 0 -151 55 -154 131h90c3 -35 29 -50 64 -50c39 0 61 20 61 52
c0 35 -24 53 -60 53c-17 0 -28 -2 -37 -5v72l59 39v18h-151v78h260v-94z" />
    <glyph glyph-name="questiondown" unicode="&#xbf;" horiz-adv-x="576" 
d="M294 -211c-165 0 -246 92 -246 208c0 97 56 140 122 185c46 33 64 50 64 92v25h143v-25c0 -80 -30 -111 -92 -160c-54 -40 -92 -58 -92 -116c0 -47 33 -85 97 -85s103 32 106 105h142c-3 -127 -83 -229 -244 -229zM230 514h153v-152h-153v152z" />
    <glyph glyph-name="Agrave" unicode="&#xc0;" horiz-adv-x="722" 
d="M553 0l-58 193h-272l-58 -193h-147l227 714h231l228 -714h-151zM336 571l-75 -248h194l-75 248h-44zM298 767l-116 129h152l92 -129h-128z" />
    <glyph glyph-name="Aacute" unicode="&#xc1;" horiz-adv-x="722" 
d="M553 0l-58 193h-272l-58 -193h-147l227 714h231l228 -714h-151zM336 571l-75 -248h194l-75 248h-44zM537 896l-117 -129h-127l91 129h153z" />
    <glyph glyph-name="Acircumflex" unicode="&#xc2;" horiz-adv-x="722" 
d="M553 0l-58 193h-272l-58 -193h-147l227 714h231l228 -714h-151zM336 571l-75 -248h194l-75 248h-44zM421 896l109 -129h-111l-47 55h-26l-46 -55h-109l109 129h121z" />
    <glyph glyph-name="Atilde" unicode="&#xc3;" horiz-adv-x="722" 
d="M553 0l-58 193h-272l-58 -193h-147l227 714h231l228 -714h-151zM336 571l-75 -248h194l-75 248h-44zM462 896h64c0 -79 -34 -130 -103 -130c-64 0 -92 47 -137 47c-25 0 -30 -19 -31 -46h-63c0 80 33 130 102 130c63 0 93 -46 139 -46c24 0 28 20 29 45z" />
    <glyph glyph-name="Adieresis" unicode="&#xc4;" horiz-adv-x="722" 
d="M553 0l-58 193h-272l-58 -193h-147l227 714h231l228 -714h-151zM336 571l-75 -248h194l-75 248h-44zM520 782h-117v114h117v-114zM324 782h-118v114h118v-114z" />
    <glyph glyph-name="Aring" unicode="&#xc5;" horiz-adv-x="722" 
d="M553 0l-58 193h-272l-58 -193h-147l227 714h16c-13 19 -19 40 -19 63c0 64 54 115 118 115c67 0 118 -51 118 -115c0 -23 -6 -44 -19 -63h17l228 -714h-151zM336 571l-75 -248h194l-75 248h-44zM360 726c28 0 51 23 51 51s-23 51 -51 51c-27 0 -50 -23 -50 -51
s23 -51 50 -51z" />
    <glyph glyph-name="AE" unicode="&#xc6;" horiz-adv-x="1051" 
d="M519 0v193h-248l-100 -193h-167l384 714h608v-133h-328v-150h244v-130h-244v-168h339v-133h-488zM470 575l-132 -252h181v252h-49z" />
    <glyph glyph-name="Ccedilla" unicode="&#xc7;" horiz-adv-x="737" 
d="M534 228h155c-21 -141 -130 -238 -294 -241l-17 -45h14c9 7 22 10 39 10c43 0 77 -33 77 -86c0 -48 -33 -95 -113 -95c-68 0 -102 41 -105 81h72c3 -13 14 -25 35 -25s36 14 36 35s-15 34 -36 34c-13 0 -23 -4 -31 -12h-62l40 106c-189 19 -295 165 -295 367
c0 219 125 370 342 370c158 0 267 -90 291 -221h-156c-17 59 -62 88 -135 88c-128 0 -189 -105 -189 -237s61 -237 189 -237c77 0 128 40 143 108z" />
    <glyph glyph-name="Egrave" unicode="&#xc8;" horiz-adv-x="666" 
d="M232 133h390v-133h-539v714h528v-133h-379v-150h295v-130h-295v-168zM307 767l-116 129h152l92 -129h-128z" />
    <glyph glyph-name="Eacute" unicode="&#xc9;" horiz-adv-x="666" 
d="M232 133h390v-133h-539v714h528v-133h-379v-150h295v-130h-295v-168zM490 896l-117 -129h-127l91 129h153z" />
    <glyph glyph-name="Ecircumflex" unicode="&#xca;" horiz-adv-x="666" 
d="M232 133h390v-133h-539v714h528v-133h-379v-150h295v-130h-295v-168zM410 896l109 -129h-111l-47 55h-26l-46 -55h-109l109 129h121z" />
    <glyph glyph-name="Edieresis" unicode="&#xcb;" horiz-adv-x="666" 
d="M232 133h390v-133h-539v714h528v-133h-379v-150h295v-130h-295v-168zM504 782h-117v114h117v-114zM308 782h-118v114h118v-114z" />
    <glyph glyph-name="Igrave" unicode="&#xcc;" horiz-adv-x="325" 
d="M88 714h149v-714h-149v714zM102 767l-116 129h152l92 -129h-128z" />
    <glyph glyph-name="Iacute" unicode="&#xcd;" horiz-adv-x="325" 
d="M88 714h149v-714h-149v714zM343 896l-117 -129h-127l91 129h153z" />
    <glyph glyph-name="Icircumflex" unicode="&#xce;" horiz-adv-x="325" 
d="M88 714h149v-714h-149v714zM225 896l109 -129h-111l-47 55h-26l-46 -55h-109l109 129h121z" />
    <glyph glyph-name="Idieresis" unicode="&#xcf;" horiz-adv-x="325" 
d="M88 714h149v-714h-149v714zM321 782h-117v114h117v-114zM125 782h-118v114h118v-114z" />
    <glyph glyph-name="Eth" unicode="&#xd0;" horiz-adv-x="782" 
d="M20 305v114h84v295h298c219 0 331 -142 331 -357c0 -214 -112 -357 -331 -357h-298v305h-84zM253 133h130c144 0 197 100 197 224s-53 224 -197 224h-130v-162h176v-114h-176v-172z" />
    <glyph glyph-name="Ntilde" unicode="&#xd1;" horiz-adv-x="782" 
d="M564 714h136v-714h-193l-262 484h-26v-484h-136v714h193l262 -484h26v484zM495 896h64c0 -79 -34 -130 -103 -130c-64 0 -92 47 -137 47c-25 0 -30 -19 -31 -46h-63c0 80 33 130 102 130c63 0 93 -46 139 -46c24 0 28 20 29 45z" />
    <glyph glyph-name="Ograve" unicode="&#xd2;" horiz-adv-x="794" 
d="M397 727c227 0 348 -160 348 -370s-121 -370 -348 -370s-348 160 -348 370s121 370 348 370zM397 120c134 0 195 105 195 237s-61 237 -195 237c-132 0 -195 -105 -195 -237s63 -237 195 -237zM339 767l-116 129h152l92 -129h-128z" />
    <glyph glyph-name="Oacute" unicode="&#xd3;" horiz-adv-x="794" 
d="M397 727c227 0 348 -160 348 -370s-121 -370 -348 -370s-348 160 -348 370s121 370 348 370zM397 120c134 0 195 105 195 237s-61 237 -195 237c-132 0 -195 -105 -195 -237s63 -237 195 -237zM576 896l-117 -129h-127l91 129h153z" />
    <glyph glyph-name="Ocircumflex" unicode="&#xd4;" horiz-adv-x="794" 
d="M397 727c227 0 348 -160 348 -370s-121 -370 -348 -370s-348 160 -348 370s121 370 348 370zM397 120c134 0 195 105 195 237s-61 237 -195 237c-132 0 -195 -105 -195 -237s63 -237 195 -237zM459 896l109 -129h-111l-47 55h-26l-46 -55h-109l109 129h121z" />
    <glyph glyph-name="Otilde" unicode="&#xd5;" horiz-adv-x="794" 
d="M397 727c227 0 348 -160 348 -370s-121 -370 -348 -370s-348 160 -348 370s121 370 348 370zM397 120c134 0 195 105 195 237s-61 237 -195 237c-132 0 -195 -105 -195 -237s63 -237 195 -237zM502 896h64c0 -79 -34 -130 -103 -130c-64 0 -92 47 -137 47
c-25 0 -30 -19 -31 -46h-63c0 80 33 130 102 130c63 0 93 -46 139 -46c24 0 28 20 29 45z" />
    <glyph glyph-name="Odieresis" unicode="&#xd6;" horiz-adv-x="794" 
d="M397 727c227 0 348 -160 348 -370s-121 -370 -348 -370s-348 160 -348 370s121 370 348 370zM397 120c134 0 195 105 195 237s-61 237 -195 237c-132 0 -195 -105 -195 -237s63 -237 195 -237zM555 782h-117v114h117v-114zM359 782h-118v114h118v-114z" />
    <glyph glyph-name="multiply" unicode="&#xd7;" horiz-adv-x="658" 
d="M246 289l-167 168l83 83l167 -167l168 167l82 -83l-166 -167l166 -169l-82 -82l-168 167l-166 -166l-83 82z" />
    <glyph glyph-name="Oslash" unicode="&#xd8;" horiz-adv-x="794" 
d="M397 727c83 0 150 -20 205 -59l38 46h105l-83 -101c55 -65 83 -155 83 -256c0 -210 -121 -370 -348 -370c-83 0 -150 21 -205 58l-37 -45h-106l83 100c-56 67 -83 154 -83 257c0 210 121 370 348 370zM202 357c0 -52 9 -100 29 -137l280 339c-29 23 -67 35 -114 35
c-132 0 -195 -105 -195 -237zM397 120c134 0 195 105 195 237c0 51 -9 100 -29 137l-280 -339c29 -23 67 -35 114 -35z" />
    <glyph glyph-name="Ugrave" unicode="&#xd9;" horiz-adv-x="760" 
d="M530 714h149v-451c0 -177 -107 -276 -300 -276c-191 0 -298 99 -298 276v451h149v-448c0 -88 54 -146 150 -146c97 0 150 58 150 146v448zM328 767l-116 129h152l92 -129h-128z" />
    <glyph glyph-name="Uacute" unicode="&#xda;" horiz-adv-x="760" 
d="M530 714h149v-451c0 -177 -107 -276 -300 -276c-191 0 -298 99 -298 276v451h149v-448c0 -88 54 -146 150 -146c97 0 150 58 150 146v448zM548 896l-117 -129h-127l91 129h153z" />
    <glyph glyph-name="Ucircumflex" unicode="&#xdb;" horiz-adv-x="760" 
d="M530 714h149v-451c0 -177 -107 -276 -300 -276c-191 0 -298 99 -298 276v451h149v-448c0 -88 54 -146 150 -146c97 0 150 58 150 146v448zM441 896l109 -129h-111l-47 55h-26l-46 -55h-109l109 129h121z" />
    <glyph glyph-name="Udieresis" unicode="&#xdc;" horiz-adv-x="760" 
d="M530 714h149v-451c0 -177 -107 -276 -300 -276c-191 0 -298 99 -298 276v451h149v-448c0 -88 54 -146 150 -146c97 0 150 58 150 146v448zM537 782h-117v114h117v-114zM341 782h-118v114h118v-114z" />
    <glyph glyph-name="Yacute" unicode="&#xdd;" horiz-adv-x="679" 
d="M325 429h28l153 285h158l-250 -460v-254h-150v254l-249 460h157zM509 896l-117 -129h-127l91 129h153z" />
    <glyph glyph-name="Thorn" unicode="&#xde;" horiz-adv-x="682" 
d="M232 578h154c157 0 248 -82 248 -221c0 -137 -91 -221 -248 -221h-154v-136h-149v714h149v-136zM232 267h134c84 0 115 34 115 91s-31 89 -115 89h-134v-180z" />
    <glyph glyph-name="germandbls" unicode="&#xdf;" horiz-adv-x="643" 
d="M485 406v-25c71 -21 120 -87 120 -172c0 -133 -88 -209 -227 -209h-68v116h42c64 0 113 28 113 103c0 71 -42 110 -126 110h-13v116h13c60 0 86 39 86 84c0 51 -33 85 -88 85c-65 0 -95 -40 -95 -116v-498h-140v397h-86v117h87c0 136 94 216 237 216
c131 0 223 -75 223 -191c0 -63 -31 -113 -78 -133z" />
    <glyph glyph-name="agrave" unicode="&#xe0;" horiz-adv-x="586" 
d="M390 0v44h-26c-31 -36 -76 -57 -144 -57c-116 0 -182 80 -182 171c0 80 57 171 209 171h137v13c0 53 -30 80 -91 80c-56 0 -83 -20 -87 -55h-139c3 99 95 160 219 160c139 0 233 -55 233 -193v-334h-129zM269 98c68 0 115 44 115 108v32h-110c-60 0 -96 -22 -96 -69
s34 -71 91 -71zM251 582l-116 145h147l93 -145h-124z" />
    <glyph glyph-name="aacute" unicode="&#xe1;" horiz-adv-x="586" 
d="M390 0v44h-26c-31 -36 -76 -57 -144 -57c-116 0 -182 80 -182 171c0 80 57 171 209 171h137v13c0 53 -30 80 -91 80c-56 0 -83 -20 -87 -55h-139c3 99 95 160 219 160c139 0 233 -55 233 -193v-334h-129zM269 98c68 0 115 44 115 108v32h-110c-60 0 -96 -22 -96 -69
s34 -71 91 -71zM451 727l-117 -145h-123l92 145h148z" />
    <glyph glyph-name="acircumflex" unicode="&#xe2;" horiz-adv-x="586" 
d="M390 0v44h-26c-31 -36 -76 -57 -144 -57c-116 0 -182 80 -182 171c0 80 57 171 209 171h137v13c0 53 -30 80 -91 80c-56 0 -83 -20 -87 -55h-139c3 99 95 160 219 160c139 0 233 -55 233 -193v-334h-129zM269 98c68 0 115 44 115 108v32h-110c-60 0 -96 -22 -96 -69
s34 -71 91 -71zM356 727l110 -145h-106l-52 66h-26l-51 -66h-104l110 145h119z" />
    <glyph glyph-name="atilde" unicode="&#xe3;" horiz-adv-x="586" 
d="M390 0v44h-26c-31 -36 -76 -57 -144 -57c-116 0 -182 80 -182 171c0 80 57 171 209 171h137v13c0 53 -30 80 -91 80c-56 0 -83 -20 -87 -55h-139c3 99 95 160 219 160c139 0 233 -55 233 -193v-334h-129zM269 98c68 0 115 44 115 108v32h-110c-60 0 -96 -22 -96 -69
s34 -71 91 -71zM409 724h63c0 -84 -33 -140 -102 -140c-63 0 -94 57 -135 57c-24 0 -33 -24 -33 -57h-63c0 85 34 140 102 140c63 0 94 -57 136 -57c24 0 32 26 32 57z" />
    <glyph glyph-name="adieresis" unicode="&#xe4;" horiz-adv-x="586" 
d="M390 0v44h-26c-31 -36 -76 -57 -144 -57c-116 0 -182 80 -182 171c0 80 57 171 209 171h137v13c0 53 -30 80 -91 80c-56 0 -83 -20 -87 -55h-139c3 99 95 160 219 160c139 0 233 -55 233 -193v-334h-129zM269 98c68 0 115 44 115 108v32h-110c-60 0 -96 -22 -96 -69
s34 -71 91 -71zM459 602h-117v125h117v-125zM263 602h-118v125h118v-125z" />
    <glyph glyph-name="aring" unicode="&#xe5;" horiz-adv-x="586" 
d="M390 0v44h-26c-31 -36 -76 -57 -144 -57c-116 0 -182 80 -182 171c0 80 57 171 209 171h137v13c0 53 -30 80 -91 80c-56 0 -83 -20 -87 -55h-139c3 99 95 160 219 160c139 0 233 -55 233 -193v-334h-129zM269 98c68 0 115 44 115 108v32h-110c-60 0 -96 -22 -96 -69
s34 -71 91 -71zM296 801c67 0 118 -51 118 -115s-51 -115 -118 -115c-64 0 -118 51 -118 115s54 115 118 115zM296 636c28 0 51 22 51 50s-23 51 -51 51c-27 0 -50 -23 -50 -51s23 -50 50 -50z" />
    <glyph glyph-name="ae" unicode="&#xe6;" horiz-adv-x="917" 
d="M872 241h-363c5 -84 42 -138 122 -138c51 0 79 19 94 54h142c-23 -104 -96 -170 -236 -170c-83 0 -143 33 -186 86h-24c-41 -52 -107 -86 -190 -86c-125 0 -193 74 -193 169c0 103 74 173 213 173h125v13c0 53 -30 80 -89 80c-50 0 -78 -18 -83 -55h-139
c5 96 88 160 216 160c74 0 129 -21 166 -63h25c39 39 91 63 162 63c146 0 235 -104 238 -247v-39zM376 203v35h-103c-61 0 -95 -23 -95 -70s34 -70 87 -70c68 0 111 42 111 105zM627 422c-64 0 -99 -37 -111 -92h214c-8 56 -40 92 -103 92z" />
    <glyph glyph-name="ccedilla" unicode="&#xe7;" horiz-adv-x="583" 
d="M401 173h138c-13 -111 -106 -186 -234 -186l-17 -45h14c9 7 22 10 39 10c43 0 77 -33 77 -86c0 -48 -33 -95 -113 -95c-68 0 -102 41 -105 81h72c3 -13 14 -25 35 -25s36 14 36 35s-15 34 -36 34c-13 0 -23 -4 -31 -12h-62l41 107c-131 19 -210 120 -210 266
c0 162 100 270 259 270c129 0 218 -72 231 -177h-139c-11 39 -40 60 -91 60c-87 0 -120 -69 -120 -152c0 -84 34 -155 120 -155c56 0 88 26 96 70z" />
    <glyph glyph-name="egrave" unicode="&#xe8;" horiz-adv-x="597" 
d="M552 283v-42h-368c4 -88 45 -138 125 -138c53 0 83 19 96 54h142c-21 -103 -100 -170 -240 -170c-163 0 -262 108 -262 272s100 268 259 268c156 0 245 -104 248 -244zM303 422c-67 0 -101 -36 -114 -88h220c-8 52 -42 88 -106 88zM267 582l-116 145h147l93 -145h-124z
" />
    <glyph glyph-name="eacute" unicode="&#xe9;" horiz-adv-x="597" 
d="M552 283v-42h-368c4 -88 45 -138 125 -138c53 0 83 19 96 54h142c-21 -103 -100 -170 -240 -170c-163 0 -262 108 -262 272s100 268 259 268c156 0 245 -104 248 -244zM303 422c-67 0 -101 -36 -114 -88h220c-8 52 -42 88 -106 88zM475 727l-117 -145h-123l92 145h148z
" />
    <glyph glyph-name="ecircumflex" unicode="&#xea;" horiz-adv-x="597" 
d="M552 283v-42h-368c4 -88 45 -138 125 -138c53 0 83 19 96 54h142c-21 -103 -100 -170 -240 -170c-163 0 -262 108 -262 272s100 268 259 268c156 0 245 -104 248 -244zM303 422c-67 0 -101 -36 -114 -88h220c-8 52 -42 88 -106 88zM362 727l110 -145h-106l-52 66h-26
l-51 -66h-104l110 145h119z" />
    <glyph glyph-name="edieresis" unicode="&#xeb;" horiz-adv-x="597" 
d="M552 283v-42h-368c4 -88 45 -138 125 -138c53 0 83 19 96 54h142c-21 -103 -100 -170 -240 -170c-163 0 -262 108 -262 272s100 268 259 268c156 0 245 -104 248 -244zM303 422c-67 0 -101 -36 -114 -88h220c-8 52 -42 88 -106 88zM462 602h-117v125h117v-125zM266 602
h-118v125h118v-125z" />
    <glyph glyph-name="igrave" unicode="&#xec;" horiz-adv-x="291" 
d="M92 582l-116 145h147l93 -145h-124zM215 514v-514h-140v514h140z" />
    <glyph glyph-name="iacute" unicode="&#xed;" horiz-adv-x="290" 
d="M324 727l-117 -145h-123l92 145h148zM215 514v-514h-140v514h140z" />
    <glyph glyph-name="icircumflex" unicode="&#xee;" horiz-adv-x="290" 
d="M215 514v-514h-140v514h140zM206 727l110 -145h-106l-52 66h-26l-51 -66h-104l110 145h119z" />
    <glyph glyph-name="idieresis" unicode="&#xef;" horiz-adv-x="290" 
d="M303 602h-117v125h117v-125zM107 602h-118v125h118v-125zM215 514v-514h-140v514h140z" />
    <glyph glyph-name="eth" unicode="&#xf0;" horiz-adv-x="616" 
d="M137 557v66h140c-44 43 -94 77 -133 104h167c37 -25 79 -59 119 -104h110v-66h-59c51 -76 90 -171 90 -291c0 -161 -92 -279 -265 -279c-163 0 -261 112 -261 260c0 149 97 253 217 253c51 0 87 -13 110 -33h26c-13 31 -34 61 -59 90h-202zM308 103c85 0 122 63 122 143
c0 79 -37 144 -122 144s-124 -65 -124 -144c0 -80 39 -143 124 -143z" />
    <glyph glyph-name="ntilde" unicode="&#xf1;" horiz-adv-x="635" 
d="M568 0h-140v291c0 72 -35 112 -100 112c-71 0 -114 -61 -114 -130v-273h-140v514h135v-47h26c31 40 78 60 143 60c129 0 190 -79 190 -211v-316zM426 724h63c0 -84 -33 -140 -102 -140c-63 0 -94 57 -135 57c-24 0 -33 -24 -33 -57h-63c0 85 34 140 102 140
c63 0 94 -57 136 -57c24 0 32 26 32 57z" />
    <glyph glyph-name="ograve" unicode="&#xf2;" horiz-adv-x="622" 
d="M311 527c164 0 266 -109 266 -270s-102 -270 -266 -270c-162 0 -266 109 -266 270s104 270 266 270zM311 103c88 0 126 71 126 154c0 82 -38 153 -126 153c-87 0 -126 -71 -126 -153c0 -83 39 -154 126 -154zM255 582l-116 145h147l93 -145h-124z" />
    <glyph glyph-name="oacute" unicode="&#xf3;" horiz-adv-x="622" 
d="M311 527c164 0 266 -109 266 -270s-102 -270 -266 -270c-162 0 -266 109 -266 270s104 270 266 270zM311 103c88 0 126 71 126 154c0 82 -38 153 -126 153c-87 0 -126 -71 -126 -153c0 -83 39 -154 126 -154zM484 727l-117 -145h-123l92 145h148z" />
    <glyph glyph-name="ocircumflex" unicode="&#xf4;" horiz-adv-x="622" 
d="M311 527c164 0 266 -109 266 -270s-102 -270 -266 -270c-162 0 -266 109 -266 270s104 270 266 270zM311 103c88 0 126 71 126 154c0 82 -38 153 -126 153c-87 0 -126 -71 -126 -153c0 -83 39 -154 126 -154zM371 727l110 -145h-106l-52 66h-26l-51 -66h-104l110 145h119
z" />
    <glyph glyph-name="otilde" unicode="&#xf5;" horiz-adv-x="622" 
d="M311 527c164 0 266 -109 266 -270s-102 -270 -266 -270c-162 0 -266 109 -266 270s104 270 266 270zM311 103c88 0 126 71 126 154c0 82 -38 153 -126 153c-87 0 -126 -71 -126 -153c0 -83 39 -154 126 -154zM414 724h63c0 -84 -33 -140 -102 -140c-63 0 -94 57 -135 57
c-24 0 -33 -24 -33 -57h-63c0 85 34 140 102 140c63 0 94 -57 136 -57c24 0 32 26 32 57z" />
    <glyph glyph-name="odieresis" unicode="&#xf6;" horiz-adv-x="622" 
d="M311 527c164 0 266 -109 266 -270s-102 -270 -266 -270c-162 0 -266 109 -266 270s104 270 266 270zM311 103c88 0 126 71 126 154c0 82 -38 153 -126 153c-87 0 -126 -71 -126 -153c0 -83 39 -154 126 -154zM468 602h-117v125h117v-125zM272 602h-118v125h118v-125z" />
    <glyph glyph-name="divide" unicode="&#xf7;" horiz-adv-x="687" 
d="M423 9h-159v136h159v-136zM423 433h-159v136h159v-136zM608 230h-529v119h529v-119z" />
    <glyph glyph-name="oslash" unicode="&#xf8;" horiz-adv-x="622" 
d="M311 527c60 0 111 -14 152 -41l24 28h90l-62 -73c41 -47 62 -109 62 -184c0 -161 -102 -270 -266 -270c-60 0 -111 14 -152 41l-24 -28h-90l62 72c-40 47 -62 109 -62 185c0 161 104 270 266 270zM311 103c88 0 126 71 126 154c0 28 -4 54 -15 77l-180 -210
c18 -14 41 -21 69 -21zM185 257c0 -29 3 -55 15 -78l179 210c-18 14 -41 21 -68 21c-87 0 -126 -71 -126 -153z" />
    <glyph glyph-name="ugrave" unicode="&#xf9;" horiz-adv-x="635" 
d="M67 514h140v-291c0 -72 35 -112 100 -112c71 0 114 61 114 130v273h140v-514h-135v47h-26c-31 -40 -78 -60 -143 -60c-129 0 -190 79 -190 211v316zM260 582l-116 145h147l93 -145h-124z" />
    <glyph glyph-name="uacute" unicode="&#xfa;" horiz-adv-x="635" 
d="M67 514h140v-291c0 -72 35 -112 100 -112c71 0 114 61 114 130v273h140v-514h-135v47h-26c-31 -40 -78 -60 -143 -60c-129 0 -190 79 -190 211v316zM485 727l-117 -145h-123l92 145h148z" />
    <glyph glyph-name="ucircumflex" unicode="&#xfb;" horiz-adv-x="635" 
d="M67 514h140v-291c0 -72 35 -112 100 -112c71 0 114 61 114 130v273h140v-514h-135v47h-26c-31 -40 -78 -60 -143 -60c-129 0 -190 79 -190 211v316zM373 727l110 -145h-106l-52 66h-26l-51 -66h-104l110 145h119z" />
    <glyph glyph-name="udieresis" unicode="&#xfc;" horiz-adv-x="635" 
d="M67 514h140v-291c0 -72 35 -112 100 -112c71 0 114 61 114 130v273h140v-514h-135v47h-26c-31 -40 -78 -60 -143 -60c-129 0 -190 79 -190 211v316zM470 602h-117v125h117v-125zM274 602h-118v125h118v-125z" />
    <glyph glyph-name="yacute" unicode="&#xfd;" horiz-adv-x="594" 
d="M267 -200h-140l109 253l-218 461h146l128 -274h26l118 274h141zM469 727l-117 -145h-123l92 145h148z" />
    <glyph glyph-name="thorn" unicode="&#xfe;" 
d="M334 410c-87 0 -125 -72 -125 -153s38 -154 125 -154c84 0 123 69 123 154s-39 153 -123 153zM74 727h140v-260h26c27 35 68 60 140 60c136 0 217 -115 217 -270c0 -157 -83 -270 -218 -270c-71 0 -112 24 -139 60h-26v-247h-140v927z" />
    <glyph glyph-name="ydieresis" unicode="&#xff;" horiz-adv-x="594" 
d="M267 -200h-140l109 253l-218 461h146l128 -274h26l118 274h141zM458 602h-117v125h117v-125zM262 602h-118v125h118v-125z" />
    <glyph glyph-name="Amacron" unicode="&#x100;" horiz-adv-x="722" 
d="M553 0l-58 193h-272l-58 -193h-147l227 714h231l228 -714h-151zM336 571l-75 -248h194l-75 248h-44zM512 795h-302v82h302v-82z" />
    <glyph glyph-name="amacron" unicode="&#x101;" horiz-adv-x="586" 
d="M390 0v44h-26c-31 -36 -76 -57 -144 -57c-116 0 -182 80 -182 171c0 80 57 171 209 171h137v13c0 53 -30 80 -91 80c-56 0 -83 -20 -87 -55h-139c3 99 95 160 219 160c139 0 233 -55 233 -193v-334h-129zM269 98c68 0 115 44 115 108v32h-110c-60 0 -96 -22 -96 -69
s34 -71 91 -71zM449 619h-302v85h302v-85z" />
    <glyph glyph-name="Abreve" unicode="&#x102;" horiz-adv-x="722" 
d="M553 0l-58 193h-272l-58 -193h-147l227 714h231l228 -714h-151zM336 571l-75 -248h194l-75 248h-44zM423 896h83c-3 -80 -50 -129 -145 -129c-92 0 -141 49 -144 129h84c1 -35 21 -55 60 -55s61 20 62 55z" />
    <glyph glyph-name="abreve" unicode="&#x103;" horiz-adv-x="586" 
d="M390 0v44h-26c-31 -36 -76 -57 -144 -57c-116 0 -182 80 -182 171c0 80 57 171 209 171h137v13c0 53 -30 80 -91 80c-56 0 -83 -20 -87 -55h-139c3 99 95 160 219 160c139 0 233 -55 233 -193v-334h-129zM269 98c68 0 115 44 115 108v32h-110c-60 0 -96 -22 -96 -69
s34 -71 91 -71zM355 727h83c0 -88 -48 -145 -144 -145s-145 57 -145 145h84c0 -43 20 -68 61 -68c40 0 61 25 61 68z" />
    <glyph glyph-name="Aogonek" unicode="&#x104;" horiz-adv-x="724" 
d="M553 0l-58 193h-272l-58 -193h-147l227 714h231l228 -714c-35 -19 -58 -46 -58 -73s20 -45 60 -45v-82h-30c-96 0 -134 41 -134 96c0 39 23 81 75 104h-64zM336 571l-75 -248h194l-75 248h-44z" />
    <glyph glyph-name="aogonek" unicode="&#x105;" horiz-adv-x="586" 
d="M390 0v44h-26c-31 -36 -76 -57 -144 -57c-116 0 -182 80 -182 171c0 80 57 171 209 171h137v13c0 53 -30 80 -91 80c-56 0 -83 -20 -87 -55h-139c3 99 95 160 219 160c139 0 233 -55 233 -193v-334c-35 -19 -58 -46 -58 -73s20 -45 60 -45v-82h-30c-96 0 -134 41 -134 96
c0 39 23 81 75 104h-42zM269 98c68 0 115 44 115 108v32h-110c-60 0 -96 -22 -96 -69s34 -71 91 -71z" />
    <glyph glyph-name="Cacute" unicode="&#x106;" horiz-adv-x="750" 
d="M534 228h155c-21 -142 -131 -241 -298 -241c-218 0 -342 151 -342 370s125 370 342 370c158 0 267 -90 291 -221h-156c-17 59 -62 88 -135 88c-128 0 -189 -105 -189 -237s61 -237 189 -237c77 0 128 40 143 108zM569 896l-117 -129h-127l91 129h153z" />
    <glyph glyph-name="cacute" unicode="&#x107;" horiz-adv-x="583" 
d="M401 173h138c-13 -111 -106 -186 -235 -186c-159 0 -259 107 -259 270c0 162 100 270 259 270c129 0 218 -72 231 -177h-139c-11 39 -40 60 -91 60c-87 0 -120 -69 -120 -152c0 -84 34 -155 120 -155c56 0 88 26 96 70zM468 727l-117 -145h-123l92 145h148z" />
    <glyph glyph-name="Ccaron" unicode="&#x10c;" horiz-adv-x="750" 
d="M534 228h155c-21 -142 -131 -241 -298 -241c-218 0 -342 151 -342 370s125 370 342 370c158 0 267 -90 291 -221h-156c-17 59 -62 88 -135 88c-128 0 -189 -105 -189 -237s61 -237 189 -237c77 0 128 40 143 108zM332 767l-109 129h111l46 -55h26l47 55h109l-109 -129
h-121z" />
    <glyph glyph-name="ccaron" unicode="&#x10d;" horiz-adv-x="583" 
d="M401 173h138c-13 -111 -106 -186 -235 -186c-159 0 -259 107 -259 270c0 162 100 270 259 270c129 0 218 -72 231 -177h-139c-11 39 -40 60 -91 60c-87 0 -120 -69 -120 -152c0 -84 34 -155 120 -155c56 0 88 26 96 70zM243 582l-110 145h106l51 -66h26l51 66h105
l-110 -145h-119z" />
    <glyph glyph-name="Dcaron" unicode="&#x10e;" horiz-adv-x="762" 
d="M83 714h298c219 0 331 -142 331 -357c0 -214 -112 -357 -331 -357h-298v714zM232 133h130c144 0 197 100 197 224s-53 224 -197 224h-130v-448zM290 767l-109 129h111l46 -55h26l47 55h109l-109 -129h-121z" />
    <glyph glyph-name="dcaron" unicode="&#x10f;" horiz-adv-x="775" 
d="M722 606h-68v121h147v-146l-76 -83h-79l76 83v25zM263 527c71 0 112 -24 139 -60h26v260h140v-727h-135v47h-26c-28 -35 -72 -60 -144 -60c-136 0 -218 115 -218 270s82 270 218 270zM308 103c87 0 125 73 125 154s-38 153 -125 153c-84 0 -123 -68 -123 -153
s39 -154 123 -154z" />
    <glyph glyph-name="Dcroat" unicode="&#x110;" horiz-adv-x="782" 
d="M20 305v114h84v295h298c219 0 331 -142 331 -357c0 -214 -112 -357 -331 -357h-298v305h-84zM253 133h130c144 0 197 100 197 224s-53 224 -197 224h-130v-162h176v-114h-176v-172z" />
    <glyph glyph-name="dslash" unicode="&#x111;" horiz-adv-x="661" 
d="M263 527c71 0 112 -24 139 -60h26v109h-156v71h156v80h140v-80h77v-71h-77v-576h-136v47h-25c-28 -35 -72 -60 -144 -60c-136 0 -218 115 -218 270s82 270 218 270zM307 103c88 0 125 73 125 154s-37 153 -125 153c-85 0 -122 -68 -122 -153s37 -154 122 -154z" />
    <glyph glyph-name="Emacron" unicode="&#x112;" horiz-adv-x="666" 
d="M232 133h390v-133h-539v714h528v-133h-379v-150h295v-130h-295v-168zM503 795h-302v82h302v-82z" />
    <glyph glyph-name="emacron" unicode="&#x113;" horiz-adv-x="597" 
d="M552 283v-42h-368c4 -88 45 -138 125 -138c53 0 83 19 96 54h142c-21 -103 -100 -170 -240 -170c-163 0 -262 108 -262 272s100 268 259 268c156 0 245 -104 248 -244zM303 422c-67 0 -101 -36 -114 -88h220c-8 52 -42 88 -106 88zM461 619h-302v85h302v-85z" />
    <glyph glyph-name="Edotaccent" unicode="&#x116;" horiz-adv-x="666" 
d="M232 133h390v-133h-539v714h528v-133h-379v-150h295v-130h-295v-168zM423 782h-142v114h142v-114z" />
    <glyph glyph-name="edotaccent" unicode="&#x117;" horiz-adv-x="597" 
d="M552 283v-42h-368c4 -88 45 -138 125 -138c53 0 83 19 96 54h142c-21 -103 -100 -170 -240 -170c-163 0 -262 108 -262 272s100 268 259 268c156 0 245 -104 248 -244zM303 422c-67 0 -101 -36 -114 -88h220c-8 52 -42 88 -106 88zM376 602h-142v125h142v-125z" />
    <glyph glyph-name="Eogonek" unicode="&#x118;" horiz-adv-x="666" 
d="M232 133h390v-133c-35 -19 -58 -46 -58 -73s20 -45 60 -45v-82h-30c-96 0 -134 41 -134 96c0 39 23 81 75 104h-452v714h528v-133h-379v-150h295v-130h-295v-168z" />
    <glyph glyph-name="eogonek" unicode="&#x119;" horiz-adv-x="597" 
d="M552 283v-42h-368c4 -88 45 -138 125 -138c53 0 83 19 96 54h142c-15 -68 -45 -108 -108 -143c-47 -27 -62 -47 -62 -74s20 -45 60 -45v-82h-30c-96 0 -134 41 -134 96c0 27 11 55 35 78h-1c-163 0 -262 108 -262 272s100 268 259 268c156 0 245 -104 248 -244zM303 422
c-67 0 -101 -36 -114 -88h220c-8 52 -42 88 -106 88z" />
    <glyph glyph-name="Ecaron" unicode="&#x11a;" horiz-adv-x="666" 
d="M232 133h390v-133h-539v714h528v-133h-379v-150h295v-130h-295v-168zM292 767l-109 129h111l46 -55h26l47 55h109l-109 -129h-121z" />
    <glyph glyph-name="ecaron" unicode="&#x11b;" horiz-adv-x="597" 
d="M552 283v-42h-368c4 -88 45 -138 125 -138c53 0 83 19 96 54h142c-21 -103 -100 -170 -240 -170c-163 0 -262 108 -262 272s100 268 259 268c156 0 245 -104 248 -244zM303 422c-67 0 -101 -36 -114 -88h220c-8 52 -42 88 -106 88zM245 582l-110 145h106l51 -66h26l51 66
h105l-110 -145h-119z" />
    <glyph glyph-name="uni0122" unicode="&#x122;" horiz-adv-x="770" 
d="M390 397h318v-84c0 -166 -89 -326 -313 -326s-345 154 -345 370c0 215 122 370 346 370c163 0 266 -86 293 -217h-155c-16 53 -62 84 -139 84c-128 0 -192 -101 -192 -237s64 -238 193 -238c110 0 160 65 163 156h-169v122zM399 -232h-82l69 62v21h-59v95h140v-116z" />
    <glyph glyph-name="uni0123" unicode="&#x123;" horiz-adv-x="643" 
d="M435 514h135v-489c0 -146 -106 -236 -258 -236c-141 0 -236 60 -247 173h139c7 -42 42 -63 106 -63c88 0 120 60 120 138v30h-26c-23 -32 -62 -59 -134 -59c-137 0 -224 107 -224 259c0 151 88 260 225 260c72 0 118 -29 138 -60h26v47zM309 125c83 0 126 64 126 142
c0 80 -43 143 -126 143c-79 0 -123 -60 -123 -143s44 -142 123 -142zM308 756h82l-69 -62v-21h59v-95h-140v116z" />
    <glyph glyph-name="Itilde" unicode="&#x128;" horiz-adv-x="325" 
d="M88 714h149v-714h-149v714zM267 896h64c0 -79 -34 -130 -103 -130c-64 0 -92 47 -137 47c-25 0 -30 -19 -31 -46h-63c0 80 33 130 102 130c63 0 93 -46 139 -46c24 0 28 20 29 45z" />
    <glyph glyph-name="itilde" unicode="&#x129;" horiz-adv-x="290" 
d="M250 724h63c0 -84 -33 -140 -102 -140c-63 0 -94 57 -135 57c-24 0 -33 -24 -33 -57h-63c0 85 34 140 102 140c63 0 94 -57 136 -57c24 0 32 26 32 57zM215 514v-514h-140v514h140z" />
    <glyph glyph-name="Imacron" unicode="&#x12a;" horiz-adv-x="325" 
d="M88 714h149v-714h-149v714zM314 795h-302v82h302v-82z" />
    <glyph glyph-name="imacron" unicode="&#x12b;" horiz-adv-x="290" 
d="M297 619h-302v85h302v-85zM215 514v-514h-140v514h140z" />
    <glyph glyph-name="Iogonek" unicode="&#x12e;" horiz-adv-x="325" 
d="M88 714h149v-714c-35 -19 -58 -46 -58 -73s20 -45 60 -45v-82h-30c-96 0 -134 41 -134 96c0 39 23 81 75 104h-62v714z" />
    <glyph glyph-name="iogonek" unicode="&#x12f;" horiz-adv-x="290" 
d="M215 514v-514c-35 -19 -58 -46 -58 -73s20 -45 60 -45v-82h-30c-96 0 -134 41 -134 96c0 39 23 81 75 104h-53v514h140zM216 602h-142v125h142v-125z" />
    <glyph glyph-name="dotlessi" unicode="&#x131;" horiz-adv-x="290" 
d="M215 514v-514h-140v514h140z" />
    <glyph glyph-name="uni0136" unicode="&#x136;" horiz-adv-x="753" 
d="M83 0v714h149v-295l292 295h174l-214 -224l248 -490h-164l-181 359h-26l-129 -129v-230h-149zM402 -232h-82l69 62v21h-59v95h140v-116z" />
    <glyph glyph-name="uni0137" unicode="&#x137;" horiz-adv-x="596" 
d="M588 0h-147l-119 241h-26l-81 -91v-150h-141v727h141v-414l190 201h156l-146 -159zM331 -232h-82l69 62v21h-59v95h140v-116z" />
    <glyph glyph-name="kgreenlandic" unicode="&#x138;" horiz-adv-x="599" 
d="M588 0h-147l-119 241h-26l-81 -91v-150h-141v514h141v-201l190 201h156l-146 -159z" />
    <glyph glyph-name="Lacute" unicode="&#x139;" horiz-adv-x="651" 
d="M232 136h378v-136h-527v714h149v-578zM337 896l-117 -129h-127l91 129h153z" />
    <glyph glyph-name="lacute" unicode="&#x13a;" horiz-adv-x="288" 
d="M74 727h140v-727h-140v727zM325 896l-117 -129h-127l91 129h153z" />
    <glyph glyph-name="uni013B" unicode="&#x13b;" horiz-adv-x="651" 
d="M232 136h378v-136h-527v714h149v-578zM348 -232h-82l69 62v21h-59v95h140v-116z" />
    <glyph glyph-name="uni013C" unicode="&#x13c;" horiz-adv-x="288" 
d="M74 727h140v-727h-140v727zM146 -232h-82l69 62v21h-59v95h140v-116z" />
    <glyph glyph-name="Lcaron" unicode="&#x13d;" horiz-adv-x="651" 
d="M453 593h-68v121h147v-146l-76 -83h-79l76 83v25zM232 136h378v-136h-527v714h149v-578z" />
    <glyph glyph-name="lcaron" unicode="&#x13e;" horiz-adv-x="421" 
d="M300 606v121h147v-146l-76 -83h-79l76 83v25h-68zM74 727h140v-727h-140v727z" />
    <glyph glyph-name="Lslash" unicode="&#x141;" horiz-adv-x="678" 
d="M258 136h379v-136h-528v266l-89 -35v123l89 35v325h149v-265l176 71v-123l-176 -71v-190z" />
    <glyph glyph-name="lslash" unicode="&#x142;" horiz-adv-x="372" 
d="M116 727h140v-268l97 43v-124l-97 -43v-335h-140v272l-97 -43v124l97 43v331z" />
    <glyph glyph-name="Nacute" unicode="&#x143;" horiz-adv-x="781" 
d="M564 714h136v-714h-193l-262 484h-26v-484h-136v714h193l262 -484h26v484zM562 896l-117 -129h-127l91 129h153z" />
    <glyph glyph-name="nacute" unicode="&#x144;" horiz-adv-x="635" 
d="M568 0h-140v291c0 72 -35 112 -100 112c-71 0 -114 -61 -114 -130v-273h-140v514h135v-47h26c31 40 78 60 143 60c129 0 190 -79 190 -211v-316zM496 727l-117 -145h-123l92 145h148z" />
    <glyph glyph-name="uni0145" unicode="&#x145;" horiz-adv-x="781" 
d="M564 714h136v-714h-193l-262 484h-26v-484h-136v714h193l262 -484h26v484zM394 -232h-82l69 62v21h-59v95h140v-116z" />
    <glyph glyph-name="uni0146" unicode="&#x146;" horiz-adv-x="635" 
d="M568 0h-140v291c0 72 -35 112 -100 112c-71 0 -114 -61 -114 -130v-273h-140v514h135v-47h26c31 40 78 60 143 60c129 0 190 -79 190 -211v-316zM324 -232h-82l69 62v21h-59v95h140v-116z" />
    <glyph glyph-name="Ncaron" unicode="&#x147;" horiz-adv-x="781" 
d="M564 714h136v-714h-193l-262 484h-26v-484h-136v714h193l262 -484h26v484zM330 767l-109 129h111l46 -55h26l47 55h109l-109 -129h-121z" />
    <glyph glyph-name="ncaron" unicode="&#x148;" horiz-adv-x="635" 
d="M568 0h-140v291c0 72 -35 112 -100 112c-71 0 -114 -61 -114 -130v-273h-140v514h135v-47h26c31 40 78 60 143 60c129 0 190 -79 190 -211v-316zM258 582l-110 145h106l51 -66h26l51 66h105l-110 -145h-119z" />
    <glyph glyph-name="Eng" unicode="&#x14a;" horiz-adv-x="781" 
d="M563 714h137v-694c0 -144 -90 -220 -230 -220h-46v121h41c61 0 92 22 99 79h-57l-262 484h-26v-484h-136v714h193l262 -484h25v484z" />
    <glyph glyph-name="eng" unicode="&#x14b;" horiz-adv-x="635" 
d="M568 316v-332c0 -135 -88 -184 -197 -184h-65v116h46c55 0 76 31 76 79v296c0 72 -35 112 -100 112c-71 0 -114 -61 -114 -131v-272h-140v514h135v-47h26c31 40 78 60 143 60c129 0 190 -79 190 -211z" />
    <glyph glyph-name="Omacron" unicode="&#x14c;" horiz-adv-x="796" 
d="M397 727c227 0 348 -160 348 -370s-121 -370 -348 -370s-348 160 -348 370s121 370 348 370zM397 120c134 0 195 105 195 237s-61 237 -195 237c-132 0 -195 -105 -195 -237s63 -237 195 -237zM549 795h-302v82h302v-82z" />
    <glyph glyph-name="omacron" unicode="&#x14d;" horiz-adv-x="622" 
d="M311 527c164 0 266 -109 266 -270s-102 -270 -266 -270c-162 0 -266 109 -266 270s104 270 266 270zM311 103c88 0 126 71 126 154c0 82 -38 153 -126 153c-87 0 -126 -71 -126 -153c0 -83 39 -154 126 -154zM462 619h-302v85h302v-85z" />
    <glyph glyph-name="Ohungarumlaut" unicode="&#x150;" horiz-adv-x="796" 
d="M397 727c227 0 348 -160 348 -370s-121 -370 -348 -370s-348 160 -348 370s121 370 348 370zM397 120c134 0 195 105 195 237s-61 237 -195 237c-132 0 -195 -105 -195 -237s63 -237 195 -237zM449 896l-101 -129h-111l77 129h135zM633 896l-102 -129h-110l78 129h134z
" />
    <glyph glyph-name="ohungarumlaut" unicode="&#x151;" horiz-adv-x="622" 
d="M311 527c164 0 266 -109 266 -270s-102 -270 -266 -270c-162 0 -266 109 -266 270s104 270 266 270zM311 103c88 0 126 71 126 154c0 82 -38 153 -126 153c-87 0 -126 -71 -126 -153c0 -83 39 -154 126 -154zM359 727l-97 -145h-111l74 145h134zM543 727l-98 -145h-110
l74 145h134z" />
    <glyph glyph-name="OE" unicode="&#x152;" horiz-adv-x="1091" 
d="M708 133h339v-133h-488v42h-26c-41 -36 -99 -55 -166 -55c-189 0 -318 143 -318 370s129 370 318 370c67 0 125 -20 166 -55h26v42h477v-133h-328v-150h244v-130h-244v-168zM397 120c83 0 135 37 162 85v304c-27 48 -81 85 -162 85c-131 0 -195 -105 -195 -237
s64 -237 195 -237z" />
    <glyph glyph-name="oe" unicode="&#x153;" horiz-adv-x="978" 
d="M933 241h-363c4 -84 40 -138 120 -138c52 0 81 19 96 54h142c-21 -104 -98 -170 -238 -170c-76 0 -134 30 -177 77h-26c-41 -48 -103 -77 -180 -77c-159 0 -262 113 -262 270s103 270 262 270c79 0 140 -30 183 -79h26c39 47 99 79 179 79c144 0 238 -104 238 -244v-42z
M308 103c86 0 123 71 123 154c0 82 -37 153 -123 153c-84 0 -123 -71 -123 -153c0 -83 39 -154 123 -154zM688 422c-64 0 -100 -36 -112 -88h213c-7 53 -38 88 -101 88z" />
    <glyph glyph-name="Racute" unicode="&#x154;" horiz-adv-x="721" 
d="M83 714h336c159 0 251 -82 251 -222c0 -89 -38 -155 -106 -191l107 -301h-150l-96 269h-193v-269h-149v714zM232 583v-187h166c88 0 120 34 120 94c0 67 -36 93 -135 93h-151zM516 896l-117 -129h-127l91 129h153z" />
    <glyph glyph-name="racute" unicode="&#x155;" horiz-adv-x="448" 
d="M421 514v-130h-50c-108 0 -157 -56 -157 -159v-225h-140v514h135v-58h26c16 24 56 58 138 58h48zM386 727l-117 -145h-123l92 145h148z" />
    <glyph glyph-name="uni0156" unicode="&#x156;" horiz-adv-x="721" 
d="M83 714h336c159 0 251 -82 251 -222c0 -89 -38 -155 -106 -191l107 -301h-150l-96 269h-193v-269h-149v714zM232 583v-187h166c88 0 120 34 120 94c0 67 -36 93 -135 93h-151zM370 -232h-82l69 62v21h-59v95h140v-116z" />
    <glyph glyph-name="uni0157" unicode="&#x157;" horiz-adv-x="448" 
d="M421 514v-130h-50c-108 0 -157 -56 -157 -159v-225h-140v514h135v-58h26c16 24 56 58 138 58h48zM146 -232h-82l69 62v21h-59v95h140v-116z" />
    <glyph glyph-name="Rcaron" unicode="&#x158;" horiz-adv-x="721" 
d="M83 714h336c159 0 251 -82 251 -222c0 -89 -38 -155 -106 -191l107 -301h-150l-96 269h-193v-269h-149v714zM232 583v-187h166c88 0 120 34 120 94c0 67 -36 93 -135 93h-151zM291 767l-109 129h111l46 -55h26l47 55h109l-109 -129h-121z" />
    <glyph glyph-name="rcaron" unicode="&#x159;" horiz-adv-x="448" 
d="M421 514v-130h-50c-108 0 -157 -56 -157 -159v-225h-140v514h135v-58h26c16 24 56 58 138 58h48zM186 582l-110 145h106l51 -66h26l51 66h105l-110 -145h-119z" />
    <glyph glyph-name="Sacute" unicode="&#x15a;" horiz-adv-x="690" 
d="M619 518h-152c-13 57 -55 81 -130 81c-63 0 -117 -25 -117 -81c0 -47 40 -64 89 -73l133 -24c112 -21 194 -80 194 -209c0 -119 -92 -225 -287 -225c-181 0 -290 90 -305 231h152c13 -79 82 -103 159 -103c79 0 131 33 131 90c0 56 -37 78 -97 89l-136 24
c-119 21 -183 87 -183 195c0 117 96 214 269 214c156 0 264 -80 280 -209zM504 896l-117 -129h-127l91 129h153z" />
    <glyph glyph-name="sacute" unicode="&#x15b;" horiz-adv-x="546" 
d="M492 373h-139c-7 35 -38 46 -83 46c-43 0 -75 -13 -75 -44c0 -28 20 -35 55 -42l93 -14c97 -15 164 -62 164 -165c0 -86 -77 -167 -228 -167c-156 0 -231 68 -242 175h139c7 -47 43 -67 102 -67c56 0 89 19 89 56c0 35 -23 48 -74 57l-100 16c-81 15 -138 54 -138 142
s67 161 219 161c129 0 207 -62 218 -154zM437 727l-117 -145h-123l92 145h148z" />
    <glyph glyph-name="Scedilla" unicode="&#x15e;" horiz-adv-x="690" 
d="M619 518h-152c-13 57 -55 81 -130 81c-63 0 -117 -25 -117 -81c0 -47 40 -64 89 -73l133 -24c112 -21 194 -80 194 -209c0 -119 -92 -225 -287 -225h-8l-17 -45h14c9 7 22 10 39 10c43 0 77 -33 77 -86c0 -48 -33 -95 -113 -95c-68 0 -102 41 -105 81h72
c3 -13 14 -25 35 -25s36 14 36 35s-15 34 -36 34c-13 0 -23 -4 -31 -12h-62l41 107c-147 17 -235 102 -247 227h152c13 -79 82 -103 159 -103c79 0 131 33 131 90c0 56 -37 78 -97 89l-136 24c-119 21 -183 87 -183 195c0 117 96 214 269 214c156 0 264 -80 280 -209z" />
    <glyph glyph-name="scedilla" unicode="&#x15f;" horiz-adv-x="546" 
d="M492 373h-139c-7 35 -38 46 -83 46c-43 0 -75 -13 -75 -44c0 -28 20 -35 55 -42l93 -14c97 -15 164 -62 164 -165c0 -86 -77 -167 -228 -167h-10l-17 -45h14c9 7 22 10 39 10c43 0 77 -33 77 -86c0 -48 -33 -95 -113 -95c-68 0 -102 41 -105 81h72c3 -13 14 -25 35 -25
s36 14 36 35s-15 34 -36 34c-13 0 -23 -4 -31 -12h-62l41 107c-116 16 -174 79 -182 171h139c7 -47 43 -67 102 -67c56 0 89 19 89 56c0 35 -23 48 -74 57l-100 16c-81 15 -138 54 -138 142s67 161 219 161c129 0 207 -62 218 -154z" />
    <glyph glyph-name="Scaron" unicode="&#x160;" horiz-adv-x="690" 
d="M619 518h-152c-13 57 -55 81 -130 81c-63 0 -117 -25 -117 -81c0 -47 40 -64 89 -73l133 -24c112 -21 194 -80 194 -209c0 -119 -92 -225 -287 -225c-181 0 -290 90 -305 231h152c13 -79 82 -103 159 -103c79 0 131 33 131 90c0 56 -37 78 -97 89l-136 24
c-119 21 -183 87 -183 195c0 117 96 214 269 214c156 0 264 -80 280 -209zM281 767l-109 129h111l46 -55h26l47 55h109l-109 -129h-121z" />
    <glyph glyph-name="scaron" unicode="&#x161;" horiz-adv-x="546" 
d="M492 373h-139c-7 35 -38 46 -83 46c-43 0 -75 -13 -75 -44c0 -28 20 -35 55 -42l93 -14c97 -15 164 -62 164 -165c0 -86 -77 -167 -228 -167c-156 0 -231 68 -242 175h139c7 -47 43 -67 102 -67c56 0 89 19 89 56c0 35 -23 48 -74 57l-100 16c-81 15 -138 54 -138 142
s67 161 219 161c129 0 207 -62 218 -154zM216 582l-110 145h106l51 -66h26l51 66h105l-110 -145h-119z" />
    <glyph glyph-name="uni0162" unicode="&#x162;" horiz-adv-x="625" 
d="M609 714v-131h-222v-583h-149v583h-222v131h593zM314 -232h-82l69 62v21h-59v95h140v-116z" />
    <glyph glyph-name="uni0163" unicode="&#x163;" horiz-adv-x="405" 
d="M239 514h113v-117h-113v-221c0 -35 18 -57 66 -57h47v-119h-49c-117 0 -204 33 -204 159v238h-75v117h75v144h140v-144zM231 -232h-82l69 62v21h-59v95h140v-116z" />
    <glyph glyph-name="Tcaron" unicode="&#x164;" horiz-adv-x="625" 
d="M609 714v-131h-222v-583h-149v583h-222v131h593zM252 767l-109 129h111l46 -55h26l47 55h109l-109 -129h-121z" />
    <glyph glyph-name="tcaron" unicode="&#x165;" horiz-adv-x="443" 
d="M395 669h-68v121h147v-146l-76 -82h-79l76 82v25zM239 514h113v-117h-113v-221c0 -35 18 -57 66 -57h47v-119h-49c-117 0 -204 33 -204 159v238h-75v117h75v144h140v-144z" />
    <glyph glyph-name="Tbar" unicode="&#x166;" horiz-adv-x="625" 
d="M609 714v-131h-222v-164h145v-114h-145v-305h-149v305h-146v114h146v164h-222v131h593z" />
    <glyph glyph-name="tbar" unicode="&#x167;" horiz-adv-x="402" 
d="M239 514h113v-104h-113v-78h113v-104h-113v-52c0 -35 18 -57 66 -57h47v-119h-49c-117 0 -204 33 -204 159v69h-75v104h75v78h-75v104h75v144h140v-144z" />
    <glyph glyph-name="Utilde" unicode="&#x168;" horiz-adv-x="760" 
d="M530 714h149v-451c0 -177 -107 -276 -300 -276c-191 0 -298 99 -298 276v451h149v-448c0 -88 54 -146 150 -146c97 0 150 58 150 146v448zM484 896h64c0 -79 -34 -130 -103 -130c-64 0 -92 47 -137 47c-25 0 -30 -19 -31 -46h-63c0 80 33 130 102 130
c63 0 93 -46 139 -46c24 0 28 20 29 45z" />
    <glyph glyph-name="utilde" unicode="&#x169;" horiz-adv-x="635" 
d="M67 514h140v-291c0 -72 35 -112 100 -112c71 0 114 61 114 130v273h140v-514h-135v47h-26c-31 -40 -78 -60 -143 -60c-129 0 -190 79 -190 211v316zM418 724h63c0 -84 -33 -140 -102 -140c-63 0 -94 57 -135 57c-24 0 -33 -24 -33 -57h-63c0 85 34 140 102 140
c63 0 94 -57 136 -57c24 0 32 26 32 57z" />
    <glyph glyph-name="Umacron" unicode="&#x16a;" horiz-adv-x="760" 
d="M530 714h149v-451c0 -177 -107 -276 -300 -276c-191 0 -298 99 -298 276v451h149v-448c0 -88 54 -146 150 -146c97 0 150 58 150 146v448zM531 795h-302v82h302v-82z" />
    <glyph glyph-name="umacron" unicode="&#x16b;" horiz-adv-x="635" 
d="M68 514h140v-291c0 -72 35 -112 100 -112c71 0 114 61 114 130v273h140v-514h-135v47h-26c-31 -40 -78 -60 -143 -60c-129 0 -190 79 -190 211v316zM465 619h-302v85h302v-85z" />
    <glyph glyph-name="Uring" unicode="&#x16e;" horiz-adv-x="760" 
d="M530 714h149v-451c0 -177 -107 -276 -300 -276c-191 0 -298 99 -298 276v451h149v-448c0 -88 54 -146 150 -146c97 0 150 58 150 146v448zM379 978c67 0 118 -51 118 -115s-51 -115 -118 -115c-64 0 -118 51 -118 115s54 115 118 115zM379 812c28 0 51 23 51 51
s-23 51 -51 51c-27 0 -50 -23 -50 -51s23 -51 50 -51z" />
    <glyph glyph-name="uring" unicode="&#x16f;" horiz-adv-x="635" 
d="M68 514h140v-291c0 -72 35 -112 100 -112c71 0 114 61 114 130v273h140v-514h-135v47h-26c-31 -40 -78 -60 -143 -60c-129 0 -190 79 -190 211v316zM314 801c67 0 118 -51 118 -115s-51 -115 -118 -115c-64 0 -118 51 -118 115s54 115 118 115zM314 636c28 0 51 22 51 50
s-23 51 -51 51c-27 0 -50 -23 -50 -51s23 -50 50 -50z" />
    <glyph glyph-name="Uhungarumlaut" unicode="&#x170;" horiz-adv-x="760" 
d="M530 714h149v-451c0 -177 -107 -276 -300 -276c-191 0 -298 99 -298 276v451h149v-448c0 -88 54 -146 150 -146c97 0 150 58 150 146v448zM441 896l-101 -129h-111l77 129h135zM625 896l-102 -129h-110l78 129h134z" />
    <glyph glyph-name="uhungarumlaut" unicode="&#x171;" horiz-adv-x="635" 
d="M68 514h140v-291c0 -72 35 -112 100 -112c71 0 114 61 114 130v273h140v-514h-135v47h-26c-31 -40 -78 -60 -143 -60c-129 0 -190 79 -190 211v316zM355 727l-97 -145h-111l74 145h134zM539 727l-98 -145h-110l74 145h134z" />
    <glyph glyph-name="Uogonek" unicode="&#x172;" horiz-adv-x="760" 
d="M530 714h149v-451c0 -139 -62 -214 -153 -251c-72 -29 -95 -52 -95 -85c0 -27 20 -45 60 -45v-82h-30c-96 0 -134 41 -134 96c0 32 16 67 51 91c-191 1 -297 99 -297 276v451h149v-448c0 -88 54 -146 150 -146c97 0 150 58 150 146v448z" />
    <glyph glyph-name="uogonek" unicode="&#x173;" horiz-adv-x="635" 
d="M68 514h140v-291c0 -72 35 -112 100 -112c71 0 114 61 114 130v273h140v-514c-35 -19 -58 -46 -58 -73s20 -45 60 -45v-82h-30c-96 0 -134 41 -134 96c0 39 23 81 75 104h-48v47h-26c-31 -40 -78 -60 -143 -60c-129 0 -190 79 -190 211v316z" />
    <glyph glyph-name="Ydieresis" unicode="&#x178;" horiz-adv-x="679" 
d="M325 429h28l153 285h158l-250 -460v-254h-150v254l-249 460h157zM496 782h-117v114h117v-114zM300 782h-118v114h118v-114z" />
    <glyph glyph-name="Zacute" unicode="&#x179;" horiz-adv-x="666" 
d="M606 714v-161l-372 -392v-28h388v-133h-578v161l374 392v28h-347v133h535zM502 896l-117 -129h-127l91 129h153z" />
    <glyph glyph-name="zacute" unicode="&#x17a;" horiz-adv-x="554" 
d="M504 0h-454v142l257 229v26h-241v117h430v-143l-257 -229v-26h265v-116zM433 727l-117 -145h-123l92 145h148z" />
    <glyph glyph-name="Zdotaccent" unicode="&#x17b;" horiz-adv-x="666" 
d="M606 714v-161l-372 -392v-28h388v-133h-578v161l374 392v28h-347v133h535zM404 782h-142v114h142v-114z" />
    <glyph glyph-name="zdotaccent" unicode="&#x17c;" horiz-adv-x="554" 
d="M504 0h-454v142l257 229v26h-241v117h430v-143l-257 -229v-26h265v-116zM346 602h-142v125h142v-125z" />
    <glyph glyph-name="Zcaron" unicode="&#x17d;" horiz-adv-x="666" 
d="M606 714v-161l-372 -392v-28h388v-133h-578v161l374 392v28h-347v133h535zM273 767l-109 129h111l46 -55h26l47 55h109l-109 -129h-121z" />
    <glyph glyph-name="zcaron" unicode="&#x17e;" horiz-adv-x="554" 
d="M504 0h-454v142l257 229v26h-241v117h430v-143l-257 -229v-26h265v-116zM225 582l-110 145h106l51 -66h26l51 66h105l-110 -145h-119z" />
    <glyph glyph-name="florin" unicode="&#x192;" horiz-adv-x="460" 
d="M179 -200h-139l92 529h-89v117h110l12 69c27 157 106 212 236 212h49v-117h-42c-68 0 -91 -38 -106 -110l-10 -54h106v-117h-126z" />
    <glyph glyph-name="circumflex" unicode="&#x2c6;" horiz-adv-x="419" 
d="M269 727l110 -145h-106l-52 66h-26l-51 -66h-104l110 145h119z" />
    <glyph glyph-name="caron" unicode="&#x2c7;" horiz-adv-x="419" 
d="M150 582l-110 145h106l51 -66h26l51 66h105l-110 -145h-119z" />
    <glyph glyph-name="breve" unicode="&#x2d8;" horiz-adv-x="369" 
d="M246 727h83c0 -88 -48 -145 -144 -145s-145 57 -145 145h84c0 -43 20 -68 61 -68c40 0 61 25 61 68z" />
    <glyph glyph-name="dotaccent" unicode="&#x2d9;" horiz-adv-x="222" 
d="M182 602h-142v125h142v-125z" />
    <glyph glyph-name="ring" unicode="&#x2da;" horiz-adv-x="316" 
d="M158 801c67 0 118 -51 118 -115s-51 -115 -118 -115c-64 0 -118 51 -118 115s54 115 118 115zM158 636c28 0 51 22 51 50s-23 51 -51 51c-27 0 -50 -23 -50 -51s23 -50 50 -50z" />
    <glyph glyph-name="ogonek" unicode="&#x2db;" horiz-adv-x="243" 
d="M136 9l60 -9c-35 -19 -58 -46 -58 -73s20 -45 60 -45v-82h-30c-96 0 -134 41 -134 96c0 44 31 96 102 113z" />
    <glyph glyph-name="tilde" unicode="&#x2dc;" horiz-adv-x="413" 
d="M310 724h63c0 -84 -33 -140 -102 -140c-63 0 -94 57 -135 57c-24 0 -33 -24 -33 -57h-63c0 85 34 140 102 140c63 0 94 -57 136 -57c24 0 32 26 32 57z" />
    <glyph glyph-name="hungarumlaut" unicode="&#x2dd;" horiz-adv-x="472" 
d="M248 727l-97 -145h-111l74 145h134zM432 727l-98 -145h-110l74 145h134z" />
    <glyph glyph-name="uni03A9" unicode="&#x3a9;" horiz-adv-x="772" 
d="M606 143v-26h115v-117h-294v122c83 56 142 138 142 256c0 137 -76 216 -183 216c-108 0 -184 -79 -184 -216c0 -118 58 -200 141 -256v-122h-293v117h115v26c-61 47 -116 130 -116 249c0 192 125 335 337 335s335 -143 335 -335c0 -119 -53 -201 -115 -249z" />
    <glyph glyph-name="pi" unicode="&#x3c0;" horiz-adv-x="646" 
d="M601 0h-56c-123 0 -173 50 -173 174v223h-131v-397h-140v397h-77v117h576v-117h-88v-216c0 -43 13 -65 54 -65h35v-116z" />
    <glyph glyph-name="uni0401" unicode="&#x401;" horiz-adv-x="666" 
d="M232 133h390v-133h-539v714h528v-133h-379v-150h295v-130h-295v-168zM502 782h-117v114h117v-114zM306 782h-118v114h118v-114z" />
    <glyph glyph-name="uni0402" unicode="&#x402;" horiz-adv-x="829" 
d="M781 211c0 -169 -111 -224 -246 -224c-23 0 -48 1 -53 4v133c4 -1 21 -4 38 -4c76 0 108 33 108 89s-36 92 -144 92c-36 0 -88 -5 -127 -14v-287h-149v583h-192v131h587v-131h-246v-164c48 11 105 15 157 15c201 0 267 -109 267 -223z" />
    <glyph glyph-name="uni0403" unicode="&#x403;" horiz-adv-x="638" 
d="M491 902l-117 -145h-123l92 145h148zM598 581h-366v-581h-149v714h515v-133z" />
    <glyph glyph-name="uni0404" unicode="&#x404;" horiz-adv-x="735" 
d="M531 211h156c-19 -131 -132 -224 -298 -224c-217 0 -340 154 -340 370c0 219 121 370 339 370c157 0 267 -87 291 -214h-155c-17 51 -66 81 -138 81c-105 0 -164 -68 -177 -167h264v-130h-265c11 -104 72 -177 180 -177c76 0 128 34 143 91z" />
    <glyph glyph-name="uni0405" unicode="&#x405;" horiz-adv-x="690" 
d="M619 518h-152c-13 57 -55 81 -130 81c-63 0 -117 -25 -117 -81c0 -47 40 -64 89 -73l133 -24c112 -21 194 -80 194 -209c0 -119 -92 -225 -287 -225c-181 0 -290 90 -305 231h152c13 -79 82 -103 159 -103c79 0 131 33 131 90c0 56 -37 78 -97 89l-136 24
c-119 21 -183 87 -183 195c0 117 96 214 269 214c156 0 264 -80 280 -209z" />
    <glyph glyph-name="uni0406" unicode="&#x406;" horiz-adv-x="324" 
d="M88 714h149v-714h-149v714z" />
    <glyph glyph-name="uni0407" unicode="&#x407;" horiz-adv-x="325" 
d="M88 714h149v-714h-149v714zM320 782h-117v114h117v-114zM124 782h-118v114h118v-114z" />
    <glyph glyph-name="uni0408" unicode="&#x408;" horiz-adv-x="604" 
d="M280 -13c-145 0 -246 84 -251 240h148c5 -71 39 -107 102 -107c61 0 95 41 95 121v473h149v-474c0 -160 -91 -253 -243 -253z" />
    <glyph glyph-name="uni0409" unicode="&#x409;" horiz-adv-x="1150" 
d="M675 131h139c100 0 136 37 136 105c0 67 -37 105 -136 105h-139v-210zM158 714h517v-242h162c168 0 265 -88 265 -235c0 -149 -97 -237 -265 -237h-312v581h-226v-193c0 -331 -81 -388 -252 -388h-26v146h25c79 0 112 23 112 252v316z" />
    <glyph glyph-name="uni040A" unicode="&#x40a;" horiz-adv-x="1162" 
d="M850 0h-312v299h-306v-299h-149v714h149v-278h306v278h149v-242h163c168 0 264 -88 264 -235c0 -149 -96 -237 -264 -237zM687 131h139c100 0 136 37 136 105s-36 105 -136 105h-139v-210z" />
    <glyph glyph-name="uni040B" unicode="&#x40b;" horiz-adv-x="832" 
d="M778 0h-149v182c0 59 -1 119 -149 119c-40 0 -84 -5 -123 -16v-285h-149v583h-192v131h587v-131h-246v-166c48 11 108 17 159 17c252 0 262 -116 262 -228v-206z" />
    <glyph glyph-name="uni040C" unicode="&#x40c;" horiz-adv-x="736" 
d="M83 0v714h149v-279h169l131 279h154l-160 -347l169 -367h-154l-139 300h-170v-300h-149zM542 896l-117 -129h-127l91 129h153z" />
    <glyph glyph-name="uni040E" unicode="&#x40e;" horiz-adv-x="682" 
d="M334 394h28l151 320h151l-342 -714h-149l102 214l-264 500h156zM422 904h110c-8 -96 -76 -154 -189 -154s-181 58 -189 154h110c4 -35 30 -62 79 -62c48 0 74 27 79 62z" />
    <glyph glyph-name="uni040F" unicode="&#x40f;" horiz-adv-x="768" 
d="M310 -175v175h-227v714h149v-581h305v581h149v-714h-227v-175h-149z" />
    <glyph glyph-name="uni0410" unicode="&#x410;" horiz-adv-x="722" 
d="M553 0l-58 193h-272l-58 -193h-147l227 714h231l228 -714h-151zM336 571l-75 -248h194l-75 248h-44z" />
    <glyph glyph-name="uni0411" unicode="&#x411;" horiz-adv-x="717" 
d="M232 445h188c159 0 249 -83 249 -222s-90 -223 -249 -223h-337v714h523v-133h-374v-136zM232 131h160c92 0 124 31 124 94c0 61 -32 95 -124 95h-160v-189z" />
    <glyph glyph-name="uni0412" unicode="&#x412;" horiz-adv-x="724" 
d="M580 384v-26c51 -23 93 -80 93 -151c0 -119 -77 -207 -246 -207h-344v714h335c157 0 235 -87 235 -189c0 -64 -28 -117 -73 -141zM232 431h168c67 0 100 27 100 80s-34 79 -101 79h-167v-159zM232 127h173c75 0 115 28 115 88c0 61 -38 91 -113 91h-175v-179z" />
    <glyph glyph-name="uni0413" unicode="&#x413;" horiz-adv-x="638" 
d="M598 581h-366v-581h-149v714h515v-133z" />
    <glyph glyph-name="uni0414" unicode="&#x414;" horiz-adv-x="799" 
d="M673 133h102v-308h-145v175h-469v-175h-145v308h74c48 85 85 216 85 424v157h498v-581zM528 133v448h-215v-63c0 -181 -31 -308 -72 -385h287z" />
    <glyph glyph-name="uni0415" unicode="&#x415;" horiz-adv-x="666" 
d="M232 133h390v-133h-539v714h528v-133h-379v-150h295v-130h-295v-168z" />
    <glyph glyph-name="uni0416" unicode="&#x416;" horiz-adv-x="1077" 
d="M759 295h-148v-295h-145v295h-148l-121 -295h-152l151 362l-142 352h152l112 -284h148v284h145v-284h148l112 284h152l-142 -352l151 -362h-152z" />
    <glyph glyph-name="uni0417" unicode="&#x417;" horiz-adv-x="696" 
d="M466 513c0 55 -52 81 -116 81c-72 0 -119 -25 -130 -82h-154c15 137 122 215 286 215c169 0 267 -83 267 -196c0 -76 -35 -119 -72 -139v-26c57 -21 98 -70 98 -159c0 -123 -107 -220 -292 -220c-196 0 -297 87 -314 230h157c17 -65 69 -97 157 -97c84 0 136 36 136 93
c0 56 -37 89 -125 89h-105v130h105c77 0 102 37 102 81z" />
    <glyph glyph-name="uni0418" unicode="&#x418;" horiz-adv-x="788" 
d="M83 714h139v-498h26l257 498h201v-714h-140v509h-26l-263 -509h-194v714z" />
    <glyph glyph-name="uni0419" unicode="&#x419;" horiz-adv-x="788" 
d="M83 714h139v-498h26l257 498h201v-714h-140v509h-26l-263 -509h-194v714zM473 904h110c-8 -96 -76 -154 -189 -154s-181 58 -189 154h110c4 -35 30 -62 79 -62c48 0 74 27 79 62z" />
    <glyph glyph-name="uni041A" unicode="&#x41a;" horiz-adv-x="716" 
d="M83 0v714h149v-279h169l131 279h154l-160 -347l169 -367h-154l-139 300h-170v-300h-149z" />
    <glyph glyph-name="uni041B" unicode="&#x41b;" horiz-adv-x="763" 
d="M21 146h25c79 0 112 23 112 252v316h523v-714h-150v581h-232v-193c0 -331 -81 -388 -252 -388h-26v146z" />
    <glyph glyph-name="uni041C" unicode="&#x41c;" horiz-adv-x="883" 
d="M83 0v714h229l117 -288h26l116 288h230v-714h-139v532h-26l-120 -288h-149l-119 288h-26v-532h-139z" />
    <glyph glyph-name="uni041D" unicode="&#x41d;" horiz-adv-x="779" 
d="M548 714h149v-714h-149v299h-316v-299h-149v714h149v-278h316v278z" />
    <glyph glyph-name="uni041E" unicode="&#x41e;" horiz-adv-x="794" 
d="M397 727c227 0 348 -160 348 -370s-121 -370 -348 -370s-348 160 -348 370s121 370 348 370zM397 120c134 0 195 105 195 237s-61 237 -195 237c-132 0 -195 -105 -195 -237s63 -237 195 -237z" />
    <glyph glyph-name="uni041F" unicode="&#x41f;" horiz-adv-x="771" 
d="M83 714h606v-714h-149v581h-308v-581h-149v714z" />
    <glyph glyph-name="uni0420" unicode="&#x420;" horiz-adv-x="715" 
d="M83 714h326c164 0 258 -84 258 -227c0 -145 -94 -231 -258 -231h-177v-256h-149v714zM232 387h156c92 0 126 35 126 98c0 64 -34 98 -126 98h-156v-196z" />
    <glyph glyph-name="uni0421" unicode="&#x421;" horiz-adv-x="737" 
d="M534 228h155c-21 -142 -131 -241 -298 -241c-218 0 -342 151 -342 370s125 370 342 370c158 0 267 -90 291 -221h-156c-17 59 -62 88 -135 88c-128 0 -189 -105 -189 -237s61 -237 189 -237c77 0 128 40 143 108z" />
    <glyph glyph-name="uni0422" unicode="&#x422;" horiz-adv-x="625" 
d="M609 714v-131h-222v-583h-149v583h-222v131h593z" />
    <glyph glyph-name="uni0423" unicode="&#x423;" horiz-adv-x="682" 
d="M334 394h28l151 320h151l-342 -714h-149l102 214l-264 500h156z" />
    <glyph glyph-name="uni0424" unicode="&#x424;" horiz-adv-x="897" 
d="M519 653h10c192 0 325 -97 325 -286c0 -193 -133 -286 -325 -286h-10v-94h-142v94h-9c-195 0 -326 93 -326 286c0 189 134 286 326 286h9v84h142v-84zM368 208h9v318h-9c-107 0 -177 -48 -177 -159c0 -109 69 -159 177 -159zM519 208h10c107 0 176 50 176 159
c0 112 -69 159 -176 159h-10v-318z" />
    <glyph glyph-name="uni0425" unicode="&#x425;" horiz-adv-x="694" 
d="M511 0l-149 294h-31l-152 -294h-160l197 375l-170 339h153l133 -262h31l137 262h151l-173 -335l197 -379h-164z" />
    <glyph glyph-name="uni0426" unicode="&#x426;" horiz-adv-x="811" 
d="M642 -175v175h-559v714h149v-581h304v581h149v-581h102v-308h-145z" />
    <glyph glyph-name="uni0427" unicode="&#x427;" horiz-adv-x="705" 
d="M53 714h149v-204c0 -58 1 -118 149 -118c41 0 84 5 123 16v306h149v-714h-149v276c-47 -11 -108 -17 -159 -17c-252 0 -262 115 -262 228v227z" />
    <glyph glyph-name="uni0428" unicode="&#x428;" horiz-adv-x="1052" 
d="M454 133v581h145v-581h226v581h145v-714h-887v714h145v-581h226z" />
    <glyph glyph-name="uni0429" unicode="&#x429;" horiz-adv-x="1096" 
d="M927 -175v175h-844v714h145v-581h226v581h145v-581h226v581h145v-581h102v-308h-145z" />
    <glyph glyph-name="uni042A" unicode="&#x42a;" horiz-adv-x="823" 
d="M510 0h-321v581h-182v133h331v-242h172c169 0 265 -88 265 -235c0 -149 -96 -237 -265 -237zM338 131h149c99 0 135 37 135 105c0 67 -36 105 -135 105h-149v-210z" />
    <glyph glyph-name="uni042B" unicode="&#x42b;" horiz-adv-x="956" 
d="M725 714h149v-714h-149v714zM232 131h126c99 0 135 37 135 105c0 67 -36 105 -135 105h-126v-210zM381 0h-298v714h149v-242h149c168 0 265 -88 265 -235c0 -149 -97 -237 -265 -237z" />
    <glyph glyph-name="uni042C" unicode="&#x42c;" horiz-adv-x="717" 
d="M232 131h148c100 0 136 38 136 106s-36 104 -136 104h-148v-210zM405 0h-322v714h149v-242h173c168 0 264 -88 264 -235c0 -149 -96 -237 -264 -237z" />
    <glyph glyph-name="uni042D" unicode="&#x42d;" horiz-adv-x="726" 
d="M39 211h156c15 -57 67 -91 143 -91c108 0 169 73 180 177h-265v130h264c-13 99 -72 167 -177 167c-72 0 -121 -30 -138 -81h-155c24 127 134 214 291 214c218 0 339 -151 339 -370c0 -216 -123 -370 -340 -370c-166 0 -279 93 -298 224z" />
    <glyph glyph-name="uni042E" unicode="&#x42e;" horiz-adv-x="1084" 
d="M692 727c221 0 343 -160 343 -370s-122 -370 -343 -370c-200 0 -320 132 -339 312h-121v-299h-149v714h149v-278h124c27 169 143 291 336 291zM692 120c127 0 190 105 190 237s-63 237 -190 237c-128 0 -190 -105 -190 -237s62 -237 190 -237z" />
    <glyph glyph-name="uni042F" unicode="&#x42f;" horiz-adv-x="720" 
d="M302 714h336v-714h-149v269h-193l-96 -269h-150l107 301c-68 36 -106 102 -106 191c0 140 92 222 251 222zM489 396v187h-151c-99 0 -135 -26 -135 -93c0 -60 32 -94 120 -94h166z" />
    <glyph glyph-name="uni0430" unicode="&#x430;" horiz-adv-x="586" 
d="M390 0v44h-26c-31 -36 -76 -57 -144 -57c-116 0 -182 80 -182 171c0 80 57 171 209 171h137v13c0 53 -30 80 -91 80c-56 0 -83 -20 -87 -55h-139c3 99 95 160 219 160c139 0 233 -55 233 -193v-334h-129zM269 98c68 0 115 44 115 108v32h-110c-60 0 -96 -22 -96 -69
s34 -71 91 -71z" />
    <glyph glyph-name="uni0431" unicode="&#x431;" horiz-adv-x="625" 
d="M335 497c148 0 245 -107 245 -255s-106 -255 -266 -255c-169 0 -269 108 -269 317c0 163 34 337 203 364l132 21c39 7 49 13 52 38h113c0 -60 -13 -124 -104 -140l-169 -27c-72 -11 -106 -49 -121 -133h26c36 51 86 70 158 70zM313 103c88 0 126 68 126 143
s-38 141 -126 141s-127 -66 -127 -141s39 -143 127 -143z" />
    <glyph glyph-name="uni0432" unicode="&#x432;" horiz-adv-x="605" 
d="M471 285v-26c49 -13 87 -52 87 -117c0 -95 -65 -142 -182 -142h-302v514h294c104 0 162 -50 162 -130c0 -51 -28 -84 -59 -99zM211 101h133c56 0 73 24 73 57s-17 58 -73 58h-133v-115zM211 413v-99h119c45 0 60 22 60 49c0 28 -15 50 -60 50h-119z" />
    <glyph glyph-name="uni0433" unicode="&#x433;" horiz-adv-x="519" 
d="M74 0v514h416v-117h-276v-397h-140z" />
    <glyph glyph-name="uni0434" unicode="&#x434;" horiz-adv-x="693" 
d="M573 116h91v-259h-132v143h-381v-143h-132v259h76c25 64 45 149 45 250v148h433v-398zM433 116v281h-167v-32c0 -103 -15 -185 -38 -249h205z" />
    <glyph glyph-name="uni0435" unicode="&#x435;" horiz-adv-x="597" 
d="M552 283v-42h-368c4 -88 45 -138 125 -138c53 0 83 19 96 54h142c-21 -103 -100 -170 -240 -170c-163 0 -262 108 -262 272s100 268 259 268c156 0 245 -104 248 -244zM303 422c-67 0 -101 -36 -114 -88h220c-8 52 -42 88 -106 88z" />
    <glyph glyph-name="uni0436" unicode="&#x436;" horiz-adv-x="867" 
d="M270 204l-93 -204h-142l121 264l-113 250h140l87 -193h99v193h130v-193h98l87 193h141l-114 -250l122 -264h-143l-93 204h-98v-204h-130v204h-99z" />
    <glyph glyph-name="uni0437" unicode="&#x437;" horiz-adv-x="570" 
d="M367 363c0 33 -33 50 -88 50c-56 0 -88 -19 -96 -56h-128c11 115 106 170 234 170c136 0 217 -64 217 -148c0 -59 -25 -86 -52 -98v-26c37 -12 67 -43 67 -106c0 -93 -91 -162 -232 -162c-161 0 -240 66 -252 174h129c13 -47 60 -60 116 -60c60 0 99 16 99 55
c0 36 -24 51 -83 51h-84v107h79c49 0 74 16 74 49z" />
    <glyph glyph-name="uni0438" unicode="&#x438;" horiz-adv-x="645" 
d="M210 0h-136v514h136v-290h24l199 290h138v-514h-136v289h-24z" />
    <glyph glyph-name="uni0439" unicode="&#x439;" horiz-adv-x="645" 
d="M210 0h-136v514h136v-290h24l199 290h138v-514h-136v289h-24zM396 718h108c-8 -93 -69 -150 -182 -150c-112 0 -173 57 -181 150h108c4 -33 25 -61 73 -61c51 0 70 28 74 61z" />
    <glyph glyph-name="uni043A" unicode="&#x43a;" horiz-adv-x="611" 
d="M430 0l-104 205h-112v-205h-140v514h140v-192h114l98 192h143l-126 -248l134 -266h-147z" />
    <glyph glyph-name="uni043B" unicode="&#x43b;" horiz-adv-x="647" 
d="M22 0v134h18c65 0 94 36 94 164v216h439v-514h-140v397h-170v-104c0 -219 -71 -293 -223 -293h-18z" />
    <glyph glyph-name="uni043C" unicode="&#x43c;" horiz-adv-x="753" 
d="M74 0v514h186l104 -216h26l104 216h185v-514h-136v328h-26l-82 -166h-117l-82 166h-26v-328h-136z" />
    <glyph glyph-name="uni043D" unicode="&#x43d;" 
d="M568 0h-140v205h-214v-205h-140v514h140v-192h214v192h140v-514z" />
    <glyph glyph-name="uni043E" unicode="&#x43e;" horiz-adv-x="622" 
d="M311 527c164 0 266 -109 266 -270s-102 -270 -266 -270c-162 0 -266 109 -266 270s104 270 266 270zM311 103c88 0 126 71 126 154c0 82 -38 153 -126 153c-87 0 -126 -71 -126 -153c0 -83 39 -154 126 -154z" />
    <glyph glyph-name="uni043F" unicode="&#x43f;" horiz-adv-x="638" 
d="M564 0h-140v397h-210v-397h-140v514h490v-514z" />
    <glyph glyph-name="uni0440" unicode="&#x440;" 
d="M334 410c-87 0 -125 -72 -125 -153s38 -154 125 -154c84 0 123 69 123 154s-39 153 -123 153zM74 514h135v-47h26c28 35 72 60 144 60c136 0 218 -115 218 -270c0 -157 -83 -270 -218 -270c-71 0 -112 24 -139 60h-26v-247h-140v714z" />
    <glyph glyph-name="uni0441" unicode="&#x441;" horiz-adv-x="583" 
d="M401 173h138c-13 -111 -106 -186 -235 -186c-159 0 -259 107 -259 270c0 162 100 270 259 270c129 0 218 -72 231 -177h-139c-11 39 -40 60 -91 60c-87 0 -120 -69 -120 -152c0 -84 34 -155 120 -155c56 0 88 26 96 70z" />
    <glyph glyph-name="uni0442" unicode="&#x442;" horiz-adv-x="537" 
d="M30 397v117h477v-117h-168v-397h-140v397h-169z" />
    <glyph glyph-name="uni0443" unicode="&#x443;" horiz-adv-x="594" 
d="M267 -200h-140l109 253l-218 461h146l128 -274h26l118 274h141z" />
    <glyph glyph-name="uni0444" unicode="&#x444;" horiz-adv-x="782" 
d="M459 0v-200h-136v200h-9c-173 0 -269 109 -269 257c0 147 94 254 264 257h14v213h136v-213h14c168 -3 264 -110 264 -257c0 -152 -100 -257 -278 -257zM182 257c0 -81 42 -146 130 -149h11v298h-10c-89 -3 -131 -69 -131 -149zM459 108h8c90 3 132 68 132 149
c0 80 -42 146 -132 149h-8v-298z" />
    <glyph glyph-name="uni0445" unicode="&#x445;" horiz-adv-x="604" 
d="M420 0l-100 189h-37l-102 -189h-148l147 264l-132 250h145l92 -177h37l94 177h143l-134 -248l146 -266h-151z" />
    <glyph glyph-name="uni0446" unicode="&#x446;" horiz-adv-x="680" 
d="M420 514h140v-398h91v-259h-132v143h-445v514h140v-398h206v398z" />
    <glyph glyph-name="uni0447" unicode="&#x447;" horiz-adv-x="587" 
d="M45 514h141v-150c0 -37 6 -78 97 -78c37 0 68 4 97 11v217h140v-514h-140v184c-43 -9 -100 -14 -143 -14c-173 0 -192 84 -192 167v177z" />
    <glyph glyph-name="uni0448" unicode="&#x448;" horiz-adv-x="860" 
d="M651 514h135v-514h-712v514h136v-398h153v398h135v-398h153v398z" />
    <glyph glyph-name="uni0449" unicode="&#x449;" horiz-adv-x="906" 
d="M651 514h135v-398h91v-259h-132v143h-671v514h136v-398h153v398h135v-398h153v398z" />
    <glyph glyph-name="uni044A" unicode="&#x44a;" horiz-adv-x="673" 
d="M17 397v117h288v-150h126c133 0 206 -67 206 -180s-73 -184 -206 -184h-266v397h-148zM305 116h105c67 0 87 26 87 69c0 44 -20 69 -87 69h-105v-138z" />
    <glyph glyph-name="uni044B" unicode="&#x44b;" horiz-adv-x="827" 
d="M74 514h140v-150h116c133 0 206 -67 206 -180s-73 -184 -206 -184h-256v514zM214 254v-138h96c67 0 86 26 86 69c0 44 -19 69 -86 69h-96zM613 514h140v-514h-140v514z" />
    <glyph glyph-name="uni044C" unicode="&#x44c;" horiz-adv-x="582" 
d="M214 514v-150h126c133 0 206 -67 206 -180s-73 -184 -206 -184h-266v514h140zM214 116h106c67 0 86 26 86 69c0 44 -19 69 -86 69h-106v-138z" />
    <glyph glyph-name="uni044D" unicode="&#x44d;" horiz-adv-x="590" 
d="M45 164h131c12 -41 50 -63 106 -63c73 0 113 43 121 106h-181v107h179c-9 57 -47 99 -119 99c-51 0 -86 -18 -99 -54h-131c19 101 105 168 233 168c156 0 260 -110 260 -270c0 -161 -104 -270 -261 -270c-130 0 -223 73 -239 177z" />
    <glyph glyph-name="uni044E" unicode="&#x44e;" horiz-adv-x="871" 
d="M563 527c157 0 263 -115 263 -270c0 -157 -106 -270 -263 -270c-140 0 -239 86 -258 218h-94v-205h-137v514h137v-192h97c24 124 120 205 255 205zM562 103c85 0 124 71 124 154c0 82 -39 153 -124 153c-87 0 -125 -71 -125 -153c0 -83 38 -154 125 -154z" />
    <glyph glyph-name="uni044F" unicode="&#x44f;" horiz-adv-x="597" 
d="M263 514h261v-514h-140v172h-128l-66 -172h-138l78 202c-51 29 -76 76 -76 140c0 107 74 172 209 172zM384 275v127h-110c-63 0 -82 -24 -82 -63c0 -40 19 -64 82 -64h110z" />
    <glyph glyph-name="uni0451" unicode="&#x451;" horiz-adv-x="597" 
d="M552 283v-42h-368c4 -88 45 -138 125 -138c53 0 83 19 96 54h142c-21 -103 -100 -170 -240 -170c-163 0 -262 108 -262 272s100 268 259 268c156 0 245 -104 248 -244zM303 422c-67 0 -101 -36 -114 -88h220c-8 52 -42 88 -106 88zM462 591h-117v125h117v-125zM266 591
h-118v125h118v-125z" />
    <glyph glyph-name="uni0452" unicode="&#x452;" horiz-adv-x="650" 
d="M591 272v-288c0 -147 -96 -184 -215 -184h-47v117h46c56 0 76 31 76 79v251c0 72 -32 112 -99 112c-72 0 -115 -61 -115 -130v-229h-140v559h-73v88h73v80h140v-80h181v-88h-181v-136h26c29 39 73 60 140 60c128 0 188 -79 188 -211z" />
    <glyph glyph-name="uni0453" unicode="&#x453;" horiz-adv-x="519" 
d="M425 727l-117 -145h-123l92 145h148zM74 0v514h416v-117h-276v-397h-140z" />
    <glyph glyph-name="uni0454" unicode="&#x454;" horiz-adv-x="589" 
d="M414 164h131c-16 -104 -109 -177 -239 -177c-157 0 -261 109 -261 270c0 160 104 270 260 270c128 0 214 -67 233 -168h-131c-13 36 -48 54 -99 54c-72 0 -110 -42 -119 -99h179v-107h-181c8 -63 48 -106 121 -106c56 0 94 22 106 63z" />
    <glyph glyph-name="uni0455" unicode="&#x455;" horiz-adv-x="546" 
d="M492 373h-139c-7 35 -38 46 -83 46c-43 0 -75 -13 -75 -44c0 -28 20 -35 55 -42l93 -14c97 -15 164 -62 164 -165c0 -86 -77 -167 -228 -167c-156 0 -231 68 -242 175h139c7 -47 43 -67 102 -67c56 0 89 19 89 56c0 35 -23 48 -74 57l-100 16c-81 15 -138 54 -138 142
s67 161 219 161c129 0 207 -62 218 -154z" />
    <glyph glyph-name="uni0456" unicode="&#x456;" horiz-adv-x="290" 
d="M216 602h-142v125h142v-125zM215 514v-514h-140v514h140z" />
    <glyph glyph-name="uni0457" unicode="&#x457;" horiz-adv-x="290" 
d="M303 602h-117v125h117v-125zM107 602h-118v125h118v-125zM215 514v-514h-140v514h140z" />
    <glyph glyph-name="uni0458" unicode="&#x458;" horiz-adv-x="301" 
d="M227 602h-142v125h142v-125zM29 -200h-65v117h46c56 0 76 31 76 79v518h140v-530c0 -135 -85 -184 -197 -184z" />
    <glyph glyph-name="uni0459" unicode="&#x459;" horiz-adv-x="932" 
d="M22 0v134h18c65 0 94 36 94 164v216h434v-150h122c133 0 206 -67 206 -180s-73 -184 -206 -184h-262v397h-165v-104c0 -219 -71 -293 -223 -293h-18zM568 116h101c67 0 87 26 87 69c0 48 -22 69 -97 69h-91v-138z" />
    <glyph glyph-name="uni045A" unicode="&#x45a;" horiz-adv-x="923" 
d="M559 514v-150h122c133 0 206 -67 206 -180s-73 -184 -206 -184h-262v205h-205v-205h-140v514h140v-192h205v192h140zM559 116h101c67 0 87 26 87 69c0 48 -21 69 -96 69h-92v-138z" />
    <glyph glyph-name="uni045B" unicode="&#x45b;" horiz-adv-x="658" 
d="M591 0h-140v247c0 72 -32 112 -99 112c-72 0 -115 -61 -115 -130v-229h-140v559h-73v88h73v80h140v-80h181v-88h-181v-136h26c29 39 73 60 140 60c128 0 188 -79 188 -211v-272z" />
    <glyph glyph-name="uni045C" unicode="&#x45c;" horiz-adv-x="607" 
d="M478 727l-117 -145h-123l92 145h148zM430 0l-104 205h-112v-205h-140v514h140v-192h114l98 192h143l-126 -248l134 -266h-147z" />
    <glyph glyph-name="uni045E" unicode="&#x45e;" horiz-adv-x="594" 
d="M267 -200h-140l109 253l-218 461h146l128 -274h26l118 274h141zM370 718h108c-8 -93 -69 -150 -182 -150c-112 0 -173 57 -181 150h108c4 -33 25 -61 73 -61c51 0 70 28 74 61z" />
    <glyph glyph-name="uni045F" unicode="&#x45f;" horiz-adv-x="634" 
d="M420 514h140v-514h-177v-143h-132v143h-177v514h140v-398h206v398z" />
    <glyph glyph-name="uni0490" unicode="&#x490;" horiz-adv-x="638" 
d="M232 581v-581h-149v714h365v150h150v-283h-366z" />
    <glyph glyph-name="uni0491" unicode="&#x491;" horiz-adv-x="507" 
d="M347 649h131v-252h-264v-397h-140v514h273v135z" />
    <glyph glyph-name="uni0492" unicode="&#x492;" horiz-adv-x="669" 
d="M22 297v114h92v303h515v-133h-366v-170h205v-114h-205v-297h-149v297h-92z" />
    <glyph glyph-name="uni0493" unicode="&#x493;" horiz-adv-x="531" 
d="M20 173v100h75v241h407v-117h-267v-124h170v-100h-170v-173h-140v173h-75z" />
    <glyph glyph-name="uni049A" unicode="&#x49a;" horiz-adv-x="769" 
d="M83 0v714h149v-279h169l131 279h154l-160 -347l107 -234h112v-308h-145v175h-59l-139 300h-170v-300h-149z" />
    <glyph glyph-name="uni049B" unicode="&#x49b;" horiz-adv-x="643" 
d="M430 0l-104 205h-112v-205h-140v514h140v-192h114l98 192h143l-126 -248l75 -150h96v-259h-132v143h-52z" />
    <glyph glyph-name="uni04A2" unicode="&#x4a2;" horiz-adv-x="823" 
d="M548 714h149v-581h102v-308h-145v175h-106v299h-316v-299h-149v714h149v-278h316v278z" />
    <glyph glyph-name="uni04A3" unicode="&#x4a3;" horiz-adv-x="688" 
d="M568 514v-398h91v-259h-132v143h-99v205h-214v-205h-140v514h140v-192h214v192h140z" />
    <glyph glyph-name="uni04AE" unicode="&#x4ae;" horiz-adv-x="679" 
d="M325 429h28l153 285h158l-250 -460v-254h-150v254l-249 460h157z" />
    <glyph glyph-name="uni04AF" unicode="&#x4af;" horiz-adv-x="579" 
d="M166 -43l-146 557h143l106 -433h43l102 433h143l-148 -557h-51v-157h-140v157h-52z" />
    <glyph glyph-name="uni04B0" unicode="&#x4b0;" horiz-adv-x="679" 
d="M325 429h28l153 285h158l-207 -380h137v-114h-180v-220h-150v220h-180v114h137l-206 380h157z" />
    <glyph glyph-name="uni04B1" unicode="&#x4b1;" horiz-adv-x="591" 
d="M67 -86v86h87l-134 514h143l106 -433h43l102 433h143l-137 -514h85v-86h-147v-114h-140v114h-151z" />
    <glyph glyph-name="uni04BA" unicode="&#x4ba;" horiz-adv-x="706" 
d="M653 0h-149v204c0 58 -1 118 -149 118c-41 0 -84 -5 -123 -16v-306h-149v714h149v-276c47 11 108 17 159 17c252 0 262 -115 262 -228v-227z" />
    <glyph glyph-name="uni04BB" unicode="&#x4bb;" horiz-adv-x="635" 
d="M568 0h-140v291c0 72 -32 112 -100 112c-71 0 -114 -61 -114 -130v-273h-140v727h140v-260h26c29 39 72 60 140 60c128 0 188 -79 188 -211v-316z" />
    <glyph glyph-name="uni04D8" unicode="&#x4d8;" horiz-adv-x="771" 
d="M378 118c117 0 178 77 186 181h-364c5 -101 61 -181 178 -181zM376 727c226 0 346 -158 346 -370c0 -210 -117 -370 -340 -370c-212 0 -333 148 -333 395c0 11 1 27 2 39h513c-13 100 -72 175 -186 175c-76 0 -123 -28 -142 -83h-155c27 128 132 214 295 214z" />
    <glyph glyph-name="uni04D9" unicode="&#x4d9;" horiz-adv-x="597" 
d="M294 -13c-167 0 -249 115 -249 271c0 11 0 22 1 35h365c-8 76 -50 118 -122 118c-53 0 -85 -19 -97 -54h-142c20 107 107 170 240 170c160 0 262 -108 262 -272c0 -165 -101 -268 -258 -268zM295 92c71 0 112 36 117 108h-229c1 -69 44 -108 112 -108z" />
    <glyph glyph-name="uni04E8" unicode="&#x4e8;" horiz-adv-x="794" 
d="M397 727c227 0 348 -160 348 -370s-121 -370 -348 -370s-348 160 -348 370s121 370 348 370zM397 120c116 0 180 76 193 181h-386c11 -105 76 -181 193 -181zM397 594c-115 0 -176 -68 -192 -171h384c-16 101 -77 171 -192 171z" />
    <glyph glyph-name="uni04E9" unicode="&#x4e9;" horiz-adv-x="622" 
d="M311 527c164 0 266 -109 266 -270s-102 -270 -266 -270c-162 0 -266 109 -266 270s104 270 266 270zM311 103c72 0 111 44 122 109h-244c11 -65 50 -109 122 -109zM311 410c-71 0 -110 -41 -121 -105h242c-11 64 -50 105 -121 105z" />
    <glyph glyph-name="endash" unicode="&#x2013;" horiz-adv-x="621" 
d="M576 229h-532v108h532v-108z" />
    <glyph glyph-name="emdash" unicode="&#x2014;" horiz-adv-x="879" 
d="M834 229h-790v108h790v-108z" />
    <glyph glyph-name="quoteleft" unicode="&#x2018;" horiz-adv-x="293" 
d="M156 572h68v-152h-154v177l77 117h85l-76 -117v-25z" />
    <glyph glyph-name="quoteright" unicode="&#x2019;" horiz-adv-x="293" 
d="M137 562h-68v152h154v-177l-77 -117h-85l76 117v25z" />
    <glyph glyph-name="quotesinglbase" unicode="&#x201a;" horiz-adv-x="293" 
d="M137 0h-68v152h154v-177l-77 -117h-85l76 117v25z" />
    <glyph glyph-name="quotedblleft" unicode="&#x201c;" horiz-adv-x="515" 
d="M156 572h68v-152h-154v177l77 117h85l-76 -117v-25zM378 572h68v-152h-154v177l77 117h85l-76 -117v-25z" />
    <glyph glyph-name="quotedblright" unicode="&#x201d;" horiz-adv-x="515" 
d="M137 562h-68v152h154v-177l-77 -117h-85l76 117v25zM359 562h-68v152h154v-177l-77 -117h-85l76 117v25z" />
    <glyph glyph-name="quotedblbase" unicode="&#x201e;" horiz-adv-x="515" 
d="M137 0h-68v152h154v-177l-77 -117h-85l76 117v25zM359 0h-68v152h154v-177l-77 -117h-85l76 117v25z" />
    <glyph glyph-name="dagger" unicode="&#x2020;" horiz-adv-x="549" 
d="M212 404h-174v117h174v193h126v-193h174v-117h-174v-556h-126v556z" />
    <glyph glyph-name="daggerdbl" unicode="&#x2021;" horiz-adv-x="549" 
d="M212 404h-174v117h174v193h126v-193h174v-117h-174v-242h174v-117h-174v-197h-126v197h-174v117h174v242z" />
    <glyph glyph-name="bullet" unicode="&#x2022;" horiz-adv-x="416" 
d="M61 356c0 81 66 147 147 147s147 -66 147 -147s-66 -147 -147 -147s-147 66 -147 147z" />
    <glyph glyph-name="ellipsis" unicode="&#x2026;" horiz-adv-x="846" 
d="M223 0h-154v152h154v-152zM499 0h-153v152h153v-152zM776 0h-154v152h154v-152z" />
    <glyph glyph-name="perthousand" unicode="&#x2030;" horiz-adv-x="1262" 
d="M284 0h-102l424 700h101zM208 714c112 0 166 -82 166 -189s-54 -189 -166 -189c-111 0 -166 82 -166 189s55 189 166 189zM208 418c51 0 74 44 74 107c0 61 -23 107 -74 107s-73 -46 -73 -107c0 -63 22 -107 73 -107zM681 365c111 0 166 -82 166 -189s-55 -189 -166 -189
c-112 0 -167 82 -167 189s55 189 167 189zM681 69c51 0 74 44 74 107c0 61 -23 107 -74 107c-52 0 -74 -46 -74 -107c0 -63 22 -107 74 -107zM1053 365c111 0 167 -82 167 -189s-56 -189 -167 -189s-166 82 -166 189s55 189 166 189zM1053 69c52 0 74 44 74 107
c0 61 -22 107 -74 107s-74 -46 -74 -107c0 -63 22 -107 74 -107z" />
    <glyph glyph-name="guilsinglleft" unicode="&#x2039;" horiz-adv-x="404" 
d="M181 302v-26l171 -183h-151l-149 155v82l149 154h151z" />
    <glyph glyph-name="guilsinglright" unicode="&#x203a;" horiz-adv-x="404" 
d="M223 276v26l-171 182h151l149 -154v-82l-149 -155h-151z" />
    <glyph glyph-name="fraction" unicode="&#x2044;" horiz-adv-x="245" 
d="M-38 0h-102l424 700h101z" />
    <glyph glyph-name="Euro" unicode="&#x20ac;" horiz-adv-x="702" 
d="M421 319l-23 -69h-142c15 -90 62 -135 139 -135c68 0 109 38 118 107h141c-19 -142 -113 -235 -260 -235c-152 0 -252 95 -281 263h-90l23 69h60c-3 21 -2 42 -1 61h-82l23 69h67c28 167 128 265 281 265c141 0 234 -86 255 -217h-143c-11 59 -49 89 -112 89
c-76 0 -122 -49 -138 -137h210l-24 -69h-194c-1 -16 -3 -40 0 -61h173z" />
    <glyph glyph-name="uni20B4" unicode="&#x20b4;" horiz-adv-x="691" 
d="M32 253v69h627v-69h-411c-5 -13 -6 -25 -6 -40c0 -68 50 -102 115 -102c59 0 103 21 118 81h146c-19 -125 -104 -205 -264 -205c-173 0 -258 103 -258 220c0 16 1 31 6 46h-73zM32 452h410c7 12 12 27 12 48c0 60 -43 90 -99 90c-59 0 -94 -25 -103 -75h-143
c11 120 111 199 247 199c156 0 240 -97 240 -208c0 -20 -3 -38 -9 -54h72v-69h-627v69z" />
    <glyph glyph-name="uni20B8" unicode="&#x20b8;" horiz-adv-x="550" 
d="M16 501v69h518v-69h-187v-501h-144v501h-187zM16 631v69h518v-69h-518z" />
    <glyph glyph-name="uni20BD" unicode="&#x20bd;" horiz-adv-x="707" 
d="M121 700h287c160 0 251 -81 251 -221c0 -141 -91 -224 -251 -224h-143v-61h182v-69h-182v-125h-144v125h-92v69h92v61h-92v121h92v324zM265 579v-203h122c93 0 129 39 129 103s-36 100 -129 100h-122z" />
    <glyph glyph-name="uni2116" unicode="&#x2116;" horiz-adv-x="1159" 
d="M554 700h133v-700h-189l-257 475h-25v-475h-133v700h189l256 -475h26v475zM1110 202h-333v80h333v-80zM942 714c112 0 167 -82 167 -189s-55 -189 -167 -189s-165 82 -165 189s53 189 165 189zM942 418c52 0 74 44 74 107c0 61 -22 107 -74 107c-51 0 -73 -46 -73 -107
c0 -63 22 -107 73 -107z" />
    <glyph glyph-name="trademark" unicode="&#x2122;" horiz-adv-x="860" 
d="M539 714l60 -150h15l57 150h131v-379h-80v277h-16l-60 -151h-81l-60 151h-15v-277h-81v379h130zM345 714v-77h-119v-302h-86v302h-118v77h323z" />
    <glyph glyph-name="Omega" unicode="&#x2126;" horiz-adv-x="770" 
d="M606 143v-26h115v-117h-294v122c83 56 142 138 142 256c0 137 -76 216 -183 216c-108 0 -184 -79 -184 -216c0 -118 58 -200 141 -256v-122h-293v117h115v26c-61 47 -116 130 -116 249c0 192 125 335 337 335s335 -143 335 -335c0 -119 -53 -201 -115 -249z" />
    <glyph glyph-name="arrowleft" unicode="&#x2190;" horiz-adv-x="808" 
d="M299 514h166l-173 -171v-26h464v-119h-464v-26l173 -172h-166l-257 258z" />
    <glyph glyph-name="arrowup" unicode="&#x2191;" horiz-adv-x="673" 
d="M594 457v-166l-172 173h-26v-464h-119v464h-26l-172 -173v166l258 257z" />
    <glyph glyph-name="arrowright" unicode="&#x2192;" horiz-adv-x="808" 
d="M343 514h166l257 -256l-257 -258h-166l173 172v26h-464v119h464v26z" />
    <glyph glyph-name="arrowdown" unicode="&#x2193;" horiz-adv-x="673" 
d="M79 257v166l172 -173h26v464h119v-464h26l172 173v-166l-258 -257z" />
    <glyph glyph-name="uni2196" unicode="&#x2196;" horiz-adv-x="705" 
d="M443 714l117 -117h-244l-18 -18l328 -328l-84 -85l-328 329l-19 -19v-244l-116 118v364h364z" />
    <glyph glyph-name="uni2197" unicode="&#x2197;" horiz-adv-x="705" 
d="M145 597l117 117h364v-364l-116 -118v244l-19 19l-328 -329l-84 85l328 328l-18 18h-244z" />
    <glyph glyph-name="uni2198" unicode="&#x2198;" horiz-adv-x="705" 
d="M560 117l-117 -117h-364v364l116 118v-244l19 -19l328 329l84 -85l-328 -328l18 -18h244z" />
    <glyph glyph-name="uni2199" unicode="&#x2199;" horiz-adv-x="705" 
d="M262 0l-117 117h244l18 18l-328 328l84 85l328 -329l19 19v244l116 -118v-364h-364z" />
    <glyph glyph-name="partialdiff" unicode="&#x2202;" horiz-adv-x="616" 
d="M308 103c85 0 122 63 122 143c0 79 -37 144 -122 144s-124 -65 -124 -144c0 -80 39 -143 124 -143zM144 727h167c104 -72 260 -224 260 -461c0 -161 -92 -279 -265 -279c-163 0 -261 112 -261 260c0 149 93 253 215 253c49 0 89 -12 110 -33h28
c-48 110 -173 203 -254 260z" />
    <glyph glyph-name="increment" unicode="&#x2206;" horiz-adv-x="653" 
d="M399 700l213 -559v-141h-572v141l213 559h146zM490 115v26l-150 398h-27l-150 -398v-26h327z" />
    <glyph glyph-name="product" unicode="&#x220f;" horiz-adv-x="623" 
d="M502 -200h-119v804h-143v-804h-119v804h-95v110h571v-110h-95v-804z" />
    <glyph glyph-name="summation" unicode="&#x2211;" horiz-adv-x="571" 
d="M204 131h342v-131h-512v156l176 188v26l-169 188v156h487v-131h-319v-25l152 -172v-59l-157 -171v-25z" />
    <glyph glyph-name="minus" unicode="&#x2212;" horiz-adv-x="673" 
d="M594 230h-515v119h515v-119z" />
    <glyph glyph-name="radical" unicode="&#x221a;" horiz-adv-x="667" 
d="M32 514h117l105 -372h26l170 558h191v-104h-106l-187 -596h-164z" />
    <glyph glyph-name="infinity" unicode="&#x221e;" horiz-adv-x="915" 
d="M445 324h25c49 51 111 120 202 120c96 0 164 -63 164 -162s-68 -162 -164 -162c-90 0 -155 67 -202 120h-25c-47 -53 -112 -120 -202 -120c-96 0 -164 63 -164 162s68 162 164 162c91 0 153 -69 202 -120zM414 282c-43 51 -96 111 -168 111c-61 0 -112 -39 -112 -111
s51 -111 112 -111c71 0 126 59 168 111zM501 282c42 -52 97 -111 168 -111c61 0 112 39 112 111s-51 111 -112 111c-72 0 -125 -60 -168 -111z" />
    <glyph glyph-name="integral" unicode="&#x222b;" horiz-adv-x="516" 
d="M456 727h49v-117h-41c-68 0 -94 -37 -106 -109l-86 -489c-29 -157 -104 -212 -236 -212h-49v117h41c68 0 94 37 106 109l86 489c27 157 106 212 236 212z" />
    <glyph glyph-name="approxequal" unicode="&#x2248;" horiz-adv-x="671" 
d="M496 485h96c0 -123 -57 -177 -144 -177c-93 0 -158 91 -223 91c-31 0 -50 -20 -50 -71h-96c0 123 56 177 143 177c94 0 160 -91 224 -91c31 0 50 20 50 71zM496 261h96c0 -123 -57 -177 -144 -177c-93 0 -158 91 -223 91c-31 0 -50 -20 -50 -71h-96c0 123 56 177 143 177
c94 0 160 -91 224 -91c31 0 50 20 50 71z" />
    <glyph glyph-name="notequal" unicode="&#x2260;" horiz-adv-x="672" 
d="M593 245v-119h-299l-74 -117h-124l74 117h-91v119h168l56 88h-224v119h300l75 117h122l-74 -117h91v-119h-167l-56 -88h223z" />
    <glyph glyph-name="lessequal" unicode="&#x2264;" horiz-adv-x="673" 
d="M594 151l-515 156v120l515 142v-120l-302 -76v-25l302 -76v-121zM79 0v119h515v-119h-515z" />
    <glyph glyph-name="greaterequal" unicode="&#x2265;" horiz-adv-x="673" 
d="M594 307l-515 -156v121l302 76v25l-302 76v120l515 -142v-120zM594 119v-119h-515v119h515z" />
    <glyph glyph-name="lozenge" unicode="&#x25ca;" horiz-adv-x="574" 
d="M348 714l173 -357l-173 -357h-122l-174 357l174 357h122zM300 160l89 197l-89 197h-26l-89 -197l89 -197h26z" />
    <glyph glyph-name="commaaccent" unicode="&#xf6c3;" horiz-adv-x="225" 
d="M120 -232h-82l69 62v21h-59v95h140v-116z" />
    <glyph glyph-name="uniFEFF" unicode="&#xfeff;" horiz-adv-x="0" 
 />
    <glyph glyph-name="zero.numr" horiz-adv-x="388" 
d="M352 523c0 -136 -67 -197 -159 -197c-91 0 -158 61 -158 197c0 139 67 198 158 198c92 0 159 -59 159 -198zM193 407c55 0 69 63 69 116c0 54 -14 117 -69 117s-68 -63 -68 -117c0 -53 13 -116 68 -116z" />
    <glyph glyph-name="one.numr" horiz-adv-x="336" 
d="M216 411h84v-78h-265v78h90v208h-19l-71 -43v85l91 53h90v-303z" />
    <glyph glyph-name="two.numr" horiz-adv-x="370" 
d="M178 411h156v-78h-299v96l111 69c45 27 86 56 86 93c0 33 -20 49 -51 49c-32 0 -54 -15 -55 -51h-91c3 88 61 132 149 132c81 0 139 -44 139 -125c0 -56 -32 -93 -75 -121l-70 -45v-19z" />
    <glyph glyph-name="three.numr" horiz-adv-x="368" 
d="M245 581v-18c45 -7 89 -41 89 -106c0 -80 -62 -131 -151 -131c-93 0 -151 55 -154 131h90c3 -35 29 -50 64 -50c39 0 61 20 61 52c0 35 -24 53 -60 53c-17 0 -28 -2 -37 -5v72l59 39v18h-151v78h260v-94z" />
    <glyph glyph-name="four.numr" horiz-adv-x="379" 
d="M298 487h46v-78h-46v-76h-88v76h-181v92l163 213h106v-227zM113 487h100v126h-19l-81 -108v-18z" />
    <glyph glyph-name="five.numr" horiz-adv-x="373" 
d="M212 594c71 0 125 -53 125 -129c0 -84 -64 -139 -148 -139c-96 0 -149 55 -154 131h91c4 -35 25 -52 60 -52c37 0 60 23 60 60c0 39 -24 59 -59 59c-25 0 -45 -9 -60 -28h-82l19 218h248v-78h-180l-4 -61h20c11 11 33 19 64 19z" />
    <glyph glyph-name="six.numr" horiz-adv-x="378" 
d="M214 589c68 0 128 -52 128 -126c0 -76 -58 -137 -146 -137c-92 0 -161 50 -161 191c0 117 50 204 162 204c71 0 127 -48 135 -108h-88c-7 20 -21 35 -49 35c-39 0 -68 -26 -75 -86h19c12 12 34 27 75 27zM193 400c35 0 59 22 59 61s-26 58 -59 58c-35 0 -60 -19 -60 -58
s25 -61 60 -61z" />
    <glyph glyph-name="seven.numr" horiz-adv-x="345" 
d="M35 714h274v-98l-148 -283h-94l146 283v20h-178v78z" />
    <glyph glyph-name="eight.numr" horiz-adv-x="380" 
d="M190 652c-35 0 -54 -20 -54 -44c0 -25 19 -45 54 -45c32 0 53 20 53 45c0 24 -21 44 -53 44zM190 399c43 0 63 24 63 51s-20 50 -63 50c-44 0 -64 -23 -64 -50s20 -51 64 -51zM91 528v17c-19 11 -41 31 -41 72c0 57 51 104 140 104s139 -47 139 -104
c0 -40 -22 -61 -41 -72v-17c27 -12 56 -37 56 -88c0 -59 -54 -114 -155 -114c-100 0 -154 55 -154 114c0 51 29 76 56 88z" />
    <glyph glyph-name="nine.numr" horiz-adv-x="378" 
d="M163 458c-68 0 -128 52 -128 126c0 76 58 137 146 137c92 0 161 -50 161 -191c0 -117 -50 -204 -162 -204c-71 0 -127 48 -135 108h88c7 -20 21 -35 49 -35c39 0 68 26 75 86h-19c-12 -12 -34 -27 -75 -27zM184 647c-35 0 -59 -22 -59 -61s26 -58 59 -58
c35 0 60 19 60 58s-25 61 -60 61z" />
    <glyph glyph-name="zero.dnom" horiz-adv-x="388" 
d="M352 190c0 -136 -67 -197 -159 -197c-91 0 -158 61 -158 197c0 139 67 198 158 198c92 0 159 -59 159 -198zM193 74c55 0 69 63 69 116c0 54 -14 117 -69 117s-68 -63 -68 -117c0 -53 13 -116 68 -116z" />
    <glyph glyph-name="one.dnom" horiz-adv-x="336" 
d="M216 78h84v-78h-265v78h90v208h-19l-71 -43v85l91 53h90v-303z" />
    <glyph glyph-name="two.dnom" horiz-adv-x="370" 
d="M178 78h156v-78h-299v96l111 69c45 27 86 56 86 93c0 33 -20 49 -51 49c-32 0 -54 -15 -55 -51h-91c3 88 61 132 149 132c81 0 139 -44 139 -125c0 -56 -32 -93 -75 -121l-70 -45v-19z" />
    <glyph glyph-name="three.dnom" horiz-adv-x="369" 
d="M245 248v-18c45 -7 89 -41 89 -106c0 -80 -62 -131 -151 -131c-93 0 -151 55 -154 131h90c3 -35 29 -50 64 -50c39 0 61 20 61 52c0 35 -24 53 -60 53c-17 0 -28 -2 -37 -5v72l59 39v18h-151v78h260v-94z" />
    <glyph glyph-name="four.dnom" horiz-adv-x="379" 
d="M298 154h46v-78h-46v-76h-88v76h-181v92l163 213h106v-227zM113 154h100v126h-19l-81 -108v-18z" />
    <glyph glyph-name="five.dnom" horiz-adv-x="373" 
d="M212 261c71 0 125 -53 125 -129c0 -84 -64 -139 -148 -139c-96 0 -149 55 -154 131h91c4 -35 25 -52 60 -52c37 0 60 23 60 60c0 39 -24 59 -59 59c-25 0 -45 -9 -60 -28h-82l19 218h248v-78h-180l-4 -61h20c11 11 33 19 64 19z" />
    <glyph glyph-name="six.dnom" horiz-adv-x="378" 
d="M214 256c68 0 128 -52 128 -126c0 -76 -58 -137 -146 -137c-92 0 -161 50 -161 191c0 117 50 204 162 204c71 0 127 -48 135 -108h-88c-7 20 -21 35 -49 35c-39 0 -68 -26 -75 -86h19c12 12 34 27 75 27zM193 67c35 0 59 22 59 61s-26 58 -59 58c-35 0 -60 -19 -60 -58
s25 -61 60 -61z" />
    <glyph glyph-name="seven.dnom" horiz-adv-x="345" 
d="M35 381h274v-98l-148 -283h-94l146 283v20h-178v78z" />
    <glyph glyph-name="eight.dnom" horiz-adv-x="380" 
d="M190 319c-35 0 -54 -20 -54 -44c0 -25 19 -45 54 -45c32 0 53 20 53 45c0 24 -21 44 -53 44zM190 66c43 0 63 24 63 51s-20 50 -63 50c-44 0 -64 -23 -64 -50s20 -51 64 -51zM91 195v17c-19 11 -41 31 -41 72c0 57 51 104 140 104s139 -47 139 -104
c0 -40 -22 -61 -41 -72v-17c27 -12 56 -37 56 -88c0 -59 -54 -114 -155 -114c-100 0 -154 55 -154 114c0 51 29 76 56 88z" />
    <glyph glyph-name="nine.dnom" horiz-adv-x="378" 
d="M163 125c-68 0 -128 52 -128 126c0 76 58 137 146 137c92 0 161 -50 161 -191c0 -117 -50 -204 -162 -204c-71 0 -127 48 -135 108h88c7 -20 21 -35 49 -35c39 0 68 26 75 86h-19c-12 -12 -34 -27 -75 -27zM184 314c-35 0 -59 -22 -59 -61s26 -58 59 -58
c35 0 60 19 60 58s-25 61 -60 61z" />
    <glyph glyph-name="zero.onum" horiz-adv-x="625" 
d="M313 527c156 0 271 -107 271 -270s-115 -270 -271 -270s-271 107 -271 270s115 270 271 270zM313 110c88 0 131 60 131 147s-43 147 -131 147s-131 -60 -131 -147s43 -147 131 -147z" />
    <glyph glyph-name="one.onum" horiz-adv-x="512" 
d="M60 0v120h142v256h-27l-115 -74v137l115 75h168v-394h127v-120h-410z" />
    <glyph glyph-name="two.onum" horiz-adv-x="557" 
d="M517 120v-120h-478v138l202 95c79 37 116 60 116 107c0 40 -30 66 -85 66c-59 0 -93 -26 -92 -87h-141c-3 117 86 208 236 208c148 0 222 -83 222 -174c0 -85 -54 -131 -125 -165l-88 -43v-25h233z" />
    <glyph glyph-name="three.onum" horiz-adv-x="600" 
d="M69 514h449v-145l-135 -102v-25c95 -8 172 -77 172 -200c0 -148 -109 -239 -265 -239c-159 0 -263 98 -266 226h140c8 -64 59 -103 126 -103c76 0 125 48 125 116c0 71 -45 117 -125 117c-27 0 -45 -3 -64 -7v117l134 100v25h-291v120z" />
    <glyph glyph-name="four.onum" horiz-adv-x="634" 
d="M507 120h88v-120h-88v-186h-137v186h-334v146l306 368h165v-394zM171 120h204v244h-26l-178 -218v-26z" />
    <glyph glyph-name="five.onum" horiz-adv-x="624" 
d="M353 292c127 0 223 -94 223 -235c0 -153 -110 -254 -258 -254c-164 0 -257 97 -265 226h140c9 -64 52 -103 120 -103c76 0 123 52 123 128c0 83 -53 127 -122 127c-47 0 -83 -17 -110 -53h-134l31 386h431v-120h-321l-11 -144h26c27 23 60 42 127 42z" />
    <glyph glyph-name="six.onum" horiz-adv-x="621" 
d="M358 465c125 0 224 -94 224 -230s-97 -248 -255 -248c-159 0 -277 93 -277 350c0 218 86 377 281 377c126 0 220 -82 233 -185h-140c-11 39 -40 68 -96 68c-80 0 -135 -61 -142 -188h26c22 25 64 56 146 56zM324 105c68 0 118 44 118 125s-51 123 -119 123
s-119 -42 -119 -122s52 -126 120 -126z" />
    <glyph glyph-name="seven.onum" horiz-adv-x="573" 
d="M525 366l-280 -552h-147l280 552v26h-329v122h476v-148z" />
    <glyph glyph-name="eight.onum" horiz-adv-x="631" 
d="M480 384v-26c45 -19 104 -69 104 -161c0 -113 -93 -210 -268 -210s-269 97 -269 210c0 92 59 142 104 161v26c-34 18 -81 63 -81 142c0 105 90 188 246 188c155 0 245 -83 245 -188c0 -79 -45 -123 -81 -142zM316 604c-65 0 -110 -40 -110 -93s45 -94 110 -94
c67 0 110 41 110 94s-43 93 -110 93zM316 105c84 0 128 48 128 105c0 56 -44 105 -128 105c-85 0 -129 -49 -129 -105c0 -57 44 -105 129 -105z" />
    <glyph glyph-name="nine.onum" horiz-adv-x="621" 
d="M261 49c-124 0 -223 93 -223 230c0 136 97 248 254 248c159 0 277 -94 277 -350c0 -218 -85 -374 -281 -374c-128 0 -217 83 -233 186h141c9 -40 39 -69 95 -69c81 0 136 58 143 185h-26c-22 -25 -65 -56 -147 -56zM296 409c-68 0 -118 -44 -118 -125s51 -123 119 -123
c67 0 118 42 118 122s-51 126 -119 126z" />
    <glyph glyph-name="zero.tnum" horiz-adv-x="630" 
d="M314 714c156 0 275 -109 275 -364c0 -254 -119 -363 -275 -363c-155 0 -273 109 -273 363c0 255 118 364 273 364zM186 350c0 -51 4 -102 19 -145l175 360c-17 14 -39 21 -66 21c-104 0 -128 -123 -128 -236zM315 115c106 0 130 123 130 235c0 51 -4 101 -19 144
l-175 -359c17 -13 39 -20 64 -20z" />
    <glyph glyph-name="one.tnum" horiz-adv-x="630" 
d="M63 0v125h200v431h-25l-130 -86v143l130 87h169v-575h163v-125h-507z" />
    <glyph glyph-name="two.tnum" horiz-adv-x="630" 
d="M198 489h-144c8 147 106 225 256 225c141 0 243 -81 243 -225c0 -91 -54 -165 -130 -224l-147 -114v-26h296v-125h-517v150l240 179c56 40 113 90 113 157c0 68 -42 100 -102 100c-59 0 -101 -29 -108 -97z" />
    <glyph glyph-name="three.tnum" horiz-adv-x="630" 
d="M87 700h450v-147l-134 -99v-27c94 -8 172 -76 172 -201c0 -148 -111 -239 -267 -239c-157 0 -263 98 -266 226h144c8 -64 55 -98 122 -98c76 0 123 44 123 112c0 69 -43 115 -123 115c-26 0 -47 -2 -64 -7v119l134 99v26h-291v121z" />
    <glyph glyph-name="four.tnum" horiz-adv-x="630" 
d="M510 275h87v-125h-87v-150h-139v150h-333v151l306 399h166v-425zM173 275h203v263h-26l-177 -237v-26z" />
    <glyph glyph-name="five.tnum" horiz-adv-x="630" 
d="M357 477c128 0 224 -95 224 -236c0 -152 -110 -254 -259 -254c-164 0 -258 97 -266 226h144c8 -64 49 -98 117 -98c75 0 120 49 120 124c0 83 -50 125 -119 125c-47 0 -84 -16 -111 -52h-134l31 388h432v-121h-320l-11 -143h26c28 21 59 41 126 41z" />
    <glyph glyph-name="six.tnum" horiz-adv-x="630" 
d="M359 465c126 0 226 -94 226 -230s-100 -248 -257 -248c-160 0 -279 93 -279 350c0 218 88 377 283 377c127 0 222 -82 235 -185h-143c-11 39 -39 66 -95 66c-80 0 -135 -60 -142 -185h26c22 25 64 55 146 55zM325 107c68 0 115 43 115 123s-48 121 -116 121
s-116 -40 -116 -120s49 -124 117 -124z" />
    <glyph glyph-name="seven.tnum" horiz-adv-x="630" 
d="M548 550l-280 -550h-150l281 550v25h-329v125h478v-150z" />
    <glyph glyph-name="eight.tnum" horiz-adv-x="630" 
d="M482 384v-26c45 -19 104 -69 104 -161c0 -113 -94 -210 -270 -210s-270 97 -270 210c0 92 59 142 104 161v26c-36 19 -81 61 -81 142c0 105 92 188 247 188s247 -83 247 -188c0 -79 -47 -124 -81 -142zM316 603c-65 0 -108 -40 -108 -92c0 -55 43 -93 108 -93
c67 0 108 38 108 93c0 52 -41 92 -108 92zM316 107c84 0 127 47 127 104c0 56 -43 104 -127 104c-85 0 -127 -48 -127 -104c0 -57 42 -104 127 -104z" />
    <glyph glyph-name="nine.tnum" horiz-adv-x="630" 
d="M272 236c-126 0 -226 94 -226 230s100 248 257 248c160 0 279 -93 279 -350c0 -218 -88 -377 -283 -377c-127 0 -222 82 -235 185h143c11 -39 39 -66 95 -66c80 0 135 60 142 185h-26c-22 -25 -64 -55 -146 -55zM306 594c-68 0 -115 -43 -115 -123s48 -121 116 -121
s116 40 116 120s-49 124 -117 124z" />
    <glyph glyph-name="dollar.tnum" horiz-adv-x="630" 
d="M284 798h63v-85c123 -15 205 -93 220 -206h-142c-11 43 -33 72 -78 81v-169l52 -11c107 -21 186 -79 186 -201c0 -112 -76 -209 -238 -220v-85h-63v87c-148 12 -225 98 -241 229h142c11 -61 47 -94 99 -105v192l-51 10c-115 23 -169 89 -169 189c0 108 76 199 220 210v84
zM347 292v-182c56 5 96 38 96 89c0 53 -30 77 -77 89zM284 431v159c-47 -7 -77 -33 -77 -80c0 -42 26 -68 77 -79z" />
    <glyph glyph-name="Euro.tnum" horiz-adv-x="630" 
d="M375 319l-23 -69h-128c13 -90 57 -135 130 -135c65 0 103 47 111 107h141c-21 -142 -107 -235 -252 -235c-149 0 -245 96 -272 263h-75l23 69h44c-1 15 -1 36 0 61h-67l24 69h50c27 164 125 265 272 265c141 0 223 -86 247 -217h-143c-11 53 -42 89 -103 89
c-72 0 -117 -48 -130 -137h196l-24 -69h-179c-2 -21 -2 -41 0 -61h158z" />
    <glyph glyph-name="sterling.tnum" horiz-adv-x="630" 
d="M238 125h357v-125h-553v125h17c47 0 62 34 62 86v62h-78v112h78v99c0 135 78 230 225 230c145 0 220 -91 225 -217h-143c-3 59 -25 89 -80 89s-84 -32 -84 -96v-105h209v-112h-209v-47c0 -37 -6 -56 -26 -75v-26z" />
    <glyph glyph-name="yen.tnum" horiz-adv-x="630" 
d="M81 317v69h85l-143 314h143l134 -314h28l135 314h144l-144 -314h85v-69h-115l-28 -61h143v-69h-161v-187h-144v187h-162v69h144l-28 61h-116z" />
    <glyph glyph-name="uni20BD.tnum" horiz-adv-x="630" 
d="M107 700h254c160 0 248 -81 248 -221c0 -141 -88 -224 -248 -224h-110v-61h175v-69h-175v-125h-144v125h-78v69h78v61h-78v121h78v324zM251 376h88c93 0 127 39 127 104c0 64 -34 99 -127 99h-88v-203z" />
    <glyph glyph-name="uni20B4.tnum" horiz-adv-x="630" 
d="M32 322h566v-69h-370c-4 -13 -6 -27 -6 -41c0 -67 43 -101 103 -101c56 0 91 25 106 81h146c-21 -124 -101 -205 -253 -205c-167 0 -245 101 -245 217c0 17 2 34 6 49h-53v69zM32 452h367c7 12 13 30 13 51c0 55 -33 87 -86 87c-57 0 -82 -28 -93 -75h-142
c11 119 105 199 236 199c149 0 227 -96 227 -206c0 -19 -4 -40 -9 -56h53v-69h-566v69z" />
    <glyph glyph-name="uni20B8.tnum" horiz-adv-x="630" 
d="M56 501v69h518v-69h-187v-501h-144v501h-187zM56 631v69h518v-69h-518z" />
    <glyph glyph-name="cent.tnum" horiz-adv-x="630" 
d="M425 173h138c-13 -105 -95 -177 -212 -185v-68h-53v69c-141 11 -229 116 -229 268s88 255 229 268v69h53v-68c117 -8 195 -77 208 -176h-139c-9 32 -32 55 -69 59v-304c41 4 67 29 74 68zM209 258c0 -72 25 -140 89 -151v300c-64 -13 -89 -77 -89 -149z" />
    <glyph glyph-name="circumflex.cap" horiz-adv-x="419" 
d="M270 896l109 -129h-111l-47 55h-26l-46 -55h-109l109 129h121z" />
    <glyph glyph-name="dieresis.cap" horiz-adv-x="394" 
d="M354 782h-117v114h117v-114zM158 782h-118v114h118v-114z" />
    <glyph glyph-name="acute.cap" horiz-adv-x="327" 
d="M287 896l-117 -129h-127l91 129h153z" />
    <glyph glyph-name="grave.cap" horiz-adv-x="327" 
d="M159 767l-116 129h152l92 -129h-128z" />
    <glyph glyph-name="ring.cap" horiz-adv-x="316" 
d="M158 968c67 0 118 -51 118 -115s-51 -115 -118 -115c-64 0 -118 51 -118 115s54 115 118 115zM158 802c28 0 51 23 51 51s-23 51 -51 51c-27 0 -50 -23 -50 -51s23 -51 50 -51z" />
    <glyph glyph-name="caron.cap" horiz-adv-x="419" 
d="M149 767l-109 129h111l46 -55h26l47 55h109l-109 -129h-121z" />
    <glyph glyph-name="dotaccent.cap" horiz-adv-x="222" 
d="M182 782h-142v114h142v-114z" />
    <glyph glyph-name="breve.cap" horiz-adv-x="369" 
d="M246 896h83c-3 -80 -50 -129 -145 -129c-92 0 -141 49 -144 129h84c1 -35 21 -55 60 -55s61 20 62 55z" />
    <glyph glyph-name="hungarumlaut.cap" horiz-adv-x="476" 
d="M252 896l-101 -129h-111l77 129h135zM436 896l-102 -129h-110l78 129h134z" />
    <glyph glyph-name="tilde.cap" horiz-adv-x="414" 
d="M310 896h64c0 -79 -34 -130 -103 -130c-64 0 -92 47 -137 47c-25 0 -30 -19 -31 -46h-63c0 80 33 130 102 130c63 0 93 -46 139 -46c24 0 28 20 29 45z" />
    <glyph glyph-name="macron.cap" horiz-adv-x="382" 
d="M342 795h-302v82h302v-82z" />
    <glyph glyph-name="cyrbreve" horiz-adv-x="455" 
d="M301 718h108c-8 -93 -69 -150 -182 -150c-112 0 -173 57 -181 150h108c4 -33 25 -61 73 -61c51 0 70 28 74 61z" />
    <glyph glyph-name="cyrbreve.cap" horiz-adv-x="458" 
d="M308 904h110c-8 -96 -76 -154 -189 -154s-181 58 -189 154h110c4 -35 30 -62 79 -62c48 0 74 27 79 62z" />
    <glyph glyph-name="hyphen.case" horiz-adv-x="391" 
d="M348 307h-303v121h303v-121z" />
    <glyph glyph-name="endash.case" horiz-adv-x="621" 
d="M576 314h-532v108h532v-108z" />
    <glyph glyph-name="emdash.case" horiz-adv-x="878" 
d="M834 314h-790v108h790v-108z" />
    <glyph glyph-name="emdash.ss02.case" horiz-adv-x="1444" 
d="M1400 314h-1356v108h1356v-108z" />
    <glyph glyph-name="bracketleft.case" horiz-adv-x="381" 
d="M328 -93h-259v900h259v-103h-138v-694h138v-103z" />
    <glyph glyph-name="bracketright.case" horiz-adv-x="381" 
d="M312 -93h-259v103h138v694h-138v103h259v-900z" />
    <glyph glyph-name="braceleft.case" horiz-adv-x="427" 
d="M201 370v-26c39 -12 67 -49 67 -113v-115c0 -72 26 -106 89 -106h35v-103h-56c-119 0 -189 72 -189 183v118c0 61 -18 95 -71 95h-24v108h24c53 0 71 34 71 95v118c0 111 70 183 189 183h56v-103h-35c-63 0 -89 -34 -89 -106v-115c0 -64 -28 -101 -67 -113z" />
    <glyph glyph-name="braceright.case" horiz-adv-x="427" 
d="M226 344v26c-39 12 -67 49 -67 113v115c0 72 -26 106 -89 106h-35v103h56c119 0 189 -72 189 -183v-118c0 -61 18 -95 71 -95h24v-108h-24c-53 0 -71 -34 -71 -95v-118c0 -111 -70 -183 -189 -183h-56v103h35c63 0 89 34 89 106v115c0 64 28 101 67 113z" />
    <glyph glyph-name="parenleft.case" horiz-adv-x="325" 
d="M165 359c0 -204 82 -349 156 -452h-122c-79 95 -155 242 -155 452c0 209 75 352 152 448h122c-72 -101 -153 -247 -153 -448z" />
    <glyph glyph-name="parenright.case" horiz-adv-x="325" 
d="M160 359c0 201 -81 347 -153 448h122c77 -96 152 -239 152 -448c0 -210 -76 -357 -155 -452h-122c74 103 156 248 156 452z" />
    <glyph glyph-name="guillemotright.case" horiz-adv-x="657" 
d="M476 342v26l-171 182h151l149 -154v-82l-149 -155h-151zM223 342v26l-171 182h151l149 -154v-82l-149 -155h-151z" />
    <glyph glyph-name="guillemotleft.case" horiz-adv-x="657" 
d="M181 368v-26l171 -183h-151l-149 155v82l149 154h151zM434 368v-26l171 -183h-151l-149 155v82l149 154h151z" />
    <glyph glyph-name="guilsinglright.case" horiz-adv-x="404" 
d="M223 342v26l-171 182h151l149 -154v-82l-149 -155h-151z" />
    <glyph glyph-name="guilsinglleft.case" horiz-adv-x="404" 
d="M181 368v-26l171 -183h-151l-149 155v82l149 154h151z" />
    <glyph glyph-name="exclamdown.case" horiz-adv-x="345" 
d="M243 0h-141v290l26 209h89l26 -209v-290zM96 714h153v-152h-153v152z" />
    <glyph glyph-name="questiondown.case" horiz-adv-x="578" 
d="M298 -13c-165 0 -245 92 -245 208c0 98 54 141 121 186c47 32 64 49 64 92v26h143v-26c0 -80 -29 -115 -98 -166c-49 -36 -85 -55 -85 -111c0 -47 32 -85 96 -85c65 0 102 30 105 105h143c-3 -127 -83 -229 -244 -229zM234 714h153v-152h-153v152z" />
    <glyph glyph-name="a.ss03" 
d="M263 527c71 0 117 -24 144 -60h26v47h135v-514h-135v47h-26c-27 -35 -72 -60 -144 -60c-136 0 -218 115 -218 270s82 270 218 270zM308 103c87 0 125 73 125 154s-38 153 -125 153c-84 0 -123 -68 -123 -153s39 -154 123 -154z" />
    <glyph glyph-name="aacute.ss03" 
d="M482 727l-117 -145h-123l92 145h148zM263 527c71 0 117 -24 144 -60h26v47h135v-514h-135v47h-26c-27 -35 -72 -60 -144 -60c-136 0 -218 115 -218 270s82 270 218 270zM308 103c87 0 125 73 125 154s-38 153 -125 153c-84 0 -123 -68 -123 -153s39 -154 123 -154z" />
    <glyph glyph-name="agrave.ss03" 
d="M280 582l-116 145h147l93 -145h-124zM263 527c71 0 117 -24 144 -60h26v47h135v-514h-135v47h-26c-27 -35 -72 -60 -144 -60c-136 0 -218 115 -218 270s82 270 218 270zM308 103c87 0 125 73 125 154s-38 153 -125 153c-84 0 -123 -68 -123 -153s39 -154 123 -154z" />
    <glyph glyph-name="acircumflex.ss03" 
d="M263 527c71 0 117 -24 144 -60h26v47h135v-514h-135v47h-26c-27 -35 -72 -60 -144 -60c-136 0 -218 115 -218 270s82 270 218 270zM308 103c87 0 125 73 125 154s-38 153 -125 153c-84 0 -123 -68 -123 -153s39 -154 123 -154zM384 727l110 -145h-106l-52 66h-26l-51 -66
h-104l110 145h119z" />
    <glyph glyph-name="adieresis.ss03" 
d="M263 527c71 0 117 -24 144 -60h26v47h135v-514h-135v47h-26c-27 -35 -72 -60 -144 -60c-136 0 -218 115 -218 270s82 270 218 270zM308 103c87 0 125 73 125 154s-38 153 -125 153c-84 0 -123 -68 -123 -153s39 -154 123 -154zM478 602h-117v125h117v-125zM282 602h-118
v125h118v-125z" />
    <glyph glyph-name="atilde.ss03" 
d="M423 724h63c0 -84 -33 -140 -102 -140c-63 0 -94 57 -135 57c-24 0 -33 -24 -33 -57h-63c0 85 34 140 102 140c63 0 94 -57 136 -57c24 0 32 26 32 57zM263 527c71 0 117 -24 144 -60h26v47h135v-514h-135v47h-26c-27 -35 -72 -60 -144 -60c-136 0 -218 115 -218 270
s82 270 218 270zM308 103c87 0 125 73 125 154s-38 153 -125 153c-84 0 -123 -68 -123 -153s39 -154 123 -154z" />
    <glyph glyph-name="aring.ss03" 
d="M319 801c67 0 118 -51 118 -115s-51 -115 -118 -115c-64 0 -118 51 -118 115s54 115 118 115zM319 636c28 0 51 22 51 50s-23 51 -51 51c-27 0 -50 -23 -50 -51s23 -50 50 -50zM263 527c71 0 117 -24 144 -60h26v47h135v-514h-135v47h-26c-27 -35 -72 -60 -144 -60
c-136 0 -218 115 -218 270s82 270 218 270zM308 103c87 0 125 73 125 154s-38 153 -125 153c-84 0 -123 -68 -123 -153s39 -154 123 -154z" />
    <glyph glyph-name="amacron.ss03" 
d="M263 527c71 0 117 -24 144 -60h26v47h135v-514h-135v47h-26c-27 -35 -72 -60 -144 -60c-136 0 -218 115 -218 270s82 270 218 270zM308 103c87 0 125 73 125 154s-38 153 -125 153c-84 0 -123 -68 -123 -153s39 -154 123 -154zM479 619h-302v85h302v-85z" />
    <glyph glyph-name="abreve.ss03" 
d="M263 527c71 0 117 -24 144 -60h26v47h135v-514h-135v47h-26c-27 -35 -72 -60 -144 -60c-136 0 -218 115 -218 270s82 270 218 270zM308 103c87 0 125 73 125 154s-38 153 -125 153c-84 0 -123 -68 -123 -153s39 -154 123 -154zM383 727h83c0 -88 -48 -145 -144 -145
s-145 57 -145 145h84c0 -43 20 -68 61 -68c40 0 61 25 61 68z" />
    <glyph glyph-name="aogonek.ss03" 
d="M263 527c71 0 117 -24 144 -60h26v47h135v-514c-35 -19 -58 -46 -58 -73s20 -45 60 -45v-82h-30c-96 0 -134 41 -134 96c0 39 23 81 75 104h-48v47h-26c-27 -35 -72 -60 -144 -60c-136 0 -218 115 -218 270s82 270 218 270zM308 103c87 0 125 73 125 154
s-38 153 -125 153c-84 0 -123 -68 -123 -153s39 -154 123 -154z" />
    <glyph glyph-name="t.ss04" horiz-adv-x="380" 
d="M239 0h-140v397h-75v117h75v144h140v-144h113v-117h-113v-397z" />
    <glyph glyph-name="tcaron.ss04" horiz-adv-x="443" 
d="M394 669h-67v121h147v-146l-76 -82h-80l76 82v25zM239 0h-140v397h-75v117h75v144h140v-144h113v-117h-113v-397z" />
    <glyph glyph-name="uni0163.ss04" horiz-adv-x="380" 
d="M239 0h-140v397h-75v117h75v144h140v-144h113v-117h-113v-397zM171 -232h-82l69 62v21h-59v95h140v-116z" />
    <glyph glyph-name="Y.ss05" horiz-adv-x="682" 
d="M334 394h28l151 320h151l-342 -714h-149l102 214l-264 500h156z" />
    <glyph glyph-name="Yacute.ss05" horiz-adv-x="682" 
d="M334 394h28l151 320h151l-342 -714h-149l102 214l-264 500h156zM506 896l-117 -129h-127l91 129h153z" />
    <glyph glyph-name="Ydieresis.ss05" horiz-adv-x="682" 
d="M334 394h28l151 320h151l-342 -714h-149l102 214l-264 500h156zM499 782h-117v114h117v-114zM303 782h-118v114h118v-114z" />
    <glyph glyph-name="ampersand.ss06" horiz-adv-x="681" 
d="M655 432v-118h-66v-87c0 -139 -109 -240 -272 -240c-168 0 -274 86 -274 217c0 94 53 142 101 161v26c-38 19 -74 59 -74 133c0 115 101 190 237 190c139 0 218 -70 233 -179h-141c-11 40 -44 61 -95 61c-57 0 -95 -32 -95 -80c0 -51 38 -84 102 -84h46v-118h-46
c-79 0 -126 -31 -126 -102c0 -64 49 -103 132 -103s131 42 131 118v205h207z" />
    <glyph glyph-name="zero.ss07" horiz-adv-x="646" 
d="M322 714c156 0 275 -109 275 -364c0 -254 -119 -363 -275 -363c-155 0 -273 109 -273 363c0 255 118 364 273 364zM194 350c0 -51 4 -102 19 -145l175 360c-17 14 -39 21 -66 21c-104 0 -128 -123 -128 -236zM323 115c106 0 130 123 130 235c0 51 -4 101 -19 144
l-175 -359c17 -13 39 -20 64 -20z" />
    <glyph glyph-name="emdash.ss02" horiz-adv-x="1444" 
d="M1400 229h-1356v108h1356v-108z" />
    <glyph glyph-name="uni0430.ss03" 
d="M263 527c71 0 117 -24 144 -60h26v47h135v-514h-135v47h-26c-27 -35 -72 -60 -144 -60c-136 0 -218 115 -218 270s82 270 218 270zM308 103c87 0 125 73 125 154s-38 153 -125 153c-84 0 -123 -68 -123 -153s39 -154 123 -154z" />
    <glyph glyph-name="uni0423.ss08" horiz-adv-x="684" 
d="M142 0v141h32c48 0 74 15 93 52l12 25l-262 496h157l165 -317h28l149 317h151l-264 -554c-53 -115 -113 -160 -225 -160h-36z" />
    <glyph glyph-name="uni040E.ss08" horiz-adv-x="684" 
d="M430 904h110c-8 -96 -76 -154 -189 -154s-181 58 -189 154h110c4 -35 30 -62 79 -62c48 0 74 27 79 62zM142 0v141h32c48 0 74 15 93 52l12 25l-262 496h157l165 -317h28l149 317h151l-264 -554c-53 -115 -113 -160 -225 -160h-36z" />
    <glyph glyph-name="quotedbl.ss01" horiz-adv-x="317" 
d="M80 473v241h34v-241h-34zM203 473v241h34v-241h-34z" />
    <glyph glyph-name="numbersign.ss01" horiz-adv-x="551" 
d="M300 0l32 208h-159l-32 -208h-34l32 208h-104v31h110l34 222h-102v31h107l33 208h34l-34 -208h161l33 208h34l-33 -208h104v-31h-109l-35 -222h103v-31h-108l-32 -208h-35zM213 461l-35 -222h160l35 222h-160z" />
    <glyph glyph-name="quotesingle.ss01" horiz-adv-x="194" 
d="M80 473v241h34v-241h-34z" />
    <glyph glyph-name="parenleft.ss01" horiz-adv-x="238" 
d="M190 759h42c-108 -137 -148 -287 -148 -450s40 -313 148 -450h-43c-101 137 -139 287 -139 450c0 164 39 313 140 450z" />
    <glyph glyph-name="parenright.ss01" horiz-adv-x="240" 
d="M6 759h42c101 -137 140 -286 140 -450c0 -163 -38 -313 -139 -450h-43c108 137 148 287 148 450s-40 313 -148 450z" />
    <glyph glyph-name="bracketleft.ss01" horiz-adv-x="258" 
d="M198 -141h-118v900h118v-31h-84v-838h84v-31z" />
    <glyph glyph-name="bracketright.ss01" horiz-adv-x="258" 
d="M178 -141h-118v31h84v838h-84v31h118v-900z" />
    <glyph glyph-name="braceleft.ss01" horiz-adv-x="337" 
d="M137 318v-18c23 -9 36 -31 36 -91v-215c0 -72 25 -104 94 -104h30v-31h-30c-80 0 -128 35 -128 136v204c0 61 -5 95 -46 95h-13v30h13c41 0 46 34 46 95v204c0 101 48 136 128 136h30v-31h-30c-69 0 -94 -32 -94 -104v-215c0 -60 -13 -82 -36 -91z" />
    <glyph glyph-name="braceright.ss01" horiz-adv-x="337" 
d="M200 300v18c-23 9 -36 31 -36 91v215c0 72 -25 104 -94 104h-30v31h30c80 0 128 -35 128 -136v-204c0 -61 5 -95 46 -95h13v-30h-13c-41 0 -46 -34 -46 -95v-204c0 -101 -48 -136 -128 -136h-30v31h30c69 0 94 32 94 104v215c0 60 13 82 36 91z" />
    <glyph glyph-name="asterisk.ss01" horiz-adv-x="452" 
d="M209 714h34l-1 -180l170 60l10 -35l-170 -55l107 -141l-28 -23l-105 147l-105 -147l-28 23l108 142l-171 54l11 35l169 -60z" />
    <glyph glyph-name="plus.ss01" horiz-adv-x="673" 
d="M321 305v241h33v-241h240v-31h-240v-242h-33v242h-242v31h242z" />
    <glyph glyph-name="minus.ss01" horiz-adv-x="673" 
d="M594 274h-515v31h515v-31z" />
    <glyph glyph-name="less.ss01" horiz-adv-x="662" 
d="M583 84v-33l-504 216v44l504 216v-33l-454 -196v-18z" />
    <glyph glyph-name="equal.ss01" horiz-adv-x="672" 
d="M593 208v-31h-514v31h514zM593 400v-31h-514v31h514z" />
    <glyph glyph-name="greater.ss01" horiz-adv-x="662" 
d="M79 51v33l454 196v18l-454 196v33l504 -216v-44z" />
    <glyph glyph-name="hyphen.ss01" horiz-adv-x="397" 
d="M350 266h-303v31h303v-31z" />
    <glyph glyph-name="endash.ss01" horiz-adv-x="621" 
d="M576 266h-532v31h532v-31z" />
    <glyph glyph-name="emdash.ss01" horiz-adv-x="879" 
d="M834 266h-790v31h790v-31z" />
    <glyph glyph-name="emdash.ss01.ss02" horiz-adv-x="1444" 
d="M1400 266h-1356v31h1356v-31z" />
    <glyph glyph-name="underscore.ss01" horiz-adv-x="513" 
d="M514 -124h-515v31h515v-31z" />
    <glyph glyph-name="slash.ss01" horiz-adv-x="365" 
d="M36 -141h-36l302 900h33z" />
    <glyph glyph-name="bar.ss01" horiz-adv-x="214" 
d="M90 -141v900h34v-900h-34z" />
    <glyph glyph-name="backslash.ss01" horiz-adv-x="365" 
d="M365 -141h-36l-299 900h33z" />
    <glyph glyph-name="degree.ss01" horiz-adv-x="461" 
d="M40 523c0 114 82 198 190 198s191 -84 191 -198c0 -113 -83 -197 -191 -197s-190 84 -190 197zM74 523c0 -94 65 -166 156 -166c92 0 157 72 157 166c0 96 -65 167 -157 167c-91 0 -156 -71 -156 -167z" />
    <glyph glyph-name="guillemotleft.ss01" horiz-adv-x="485" 
d="M88 298v-18l179 -187h-42l-173 176v39l170 176h42zM254 298v-18l179 -187h-42l-173 176v39l170 176h42z" />
    <glyph glyph-name="guillemotright.ss01" horiz-adv-x="483" 
d="M395 280v18l-177 186h42l171 -175v-39l-171 -177h-42zM229 280v18l-177 186h42l171 -175v-39l-171 -177h-42z" />
    <glyph glyph-name="guilsinglleft.ss01" horiz-adv-x="319" 
d="M88 298v-18l179 -187h-42l-173 176v39l170 176h42z" />
    <glyph glyph-name="guilsinglright.ss01" horiz-adv-x="319" 
d="M231 280v18l-176 186h42l170 -176v-39l-173 -176h-42z" />
    <glyph glyph-name="quoteleft.ss01" horiz-adv-x="234" 
d="M106 610h33v-102h-64v119l48 87h31l-48 -87v-17z" />
    <glyph glyph-name="quoteright.ss01" horiz-adv-x="234" 
d="M123 612h-33v102h64v-119l-48 -87h-31l48 87v17z" />
    <glyph glyph-name="quotesinglbase.ss01" horiz-adv-x="234" 
d="M123 0h-33v102h64v-119l-48 -87h-31l48 87v17z" />
    <glyph glyph-name="quotedblleft.ss01" horiz-adv-x="371" 
d="M243 610h33v-102h-64v119l48 87h31l-48 -87v-17zM106 610h33v-102h-64v119l48 87h31l-48 -87v-17z" />
    <glyph glyph-name="quotedblright.ss01" horiz-adv-x="371" 
d="M123 612h-33v102h64v-119l-48 -87h-31l48 87v17zM260 612h-33v102h64v-119l-48 -87h-31l48 87v17z" />
    <glyph glyph-name="quotedblbase.ss01" horiz-adv-x="371" 
d="M123 0h-33v102h64v-119l-48 -87h-31l48 87v17zM260 0h-33v102h64v-119l-48 -87h-31l48 87v17z" />
    <glyph glyph-name="arrowleft.ss01" horiz-adv-x="808" 
d="M299 514h46l-220 -220v-20h631v-31h-631v-21l220 -222h-46l-257 258z" />
    <glyph glyph-name="arrowup.ss01" horiz-adv-x="673" 
d="M594 457v-46l-221 222h-19v-633h-34v633h-19l-222 -222v46l258 257z" />
    <glyph glyph-name="arrowright.ss01" horiz-adv-x="808" 
d="M463 514h46l257 -256l-257 -258h-46l220 222v21h-631v31h631v20z" />
    <glyph glyph-name="arrowdown.ss01" horiz-adv-x="673" 
d="M594 303v-46l-257 -257l-258 257v46l222 -222h19v633h34v-633h19z" />
    <glyph glyph-name="uni2196.ss01" horiz-adv-x="675" 
d="M443 714l32 -32h-312l-13 -14l446 -448l-23 -23l-448 447l-13 -14v-313l-33 33v364h364z" />
    <glyph glyph-name="uni2197.ss01" horiz-adv-x="675" 
d="M200 682l32 32h364v-364l-33 -33v313l-13 14l-448 -447l-23 23l446 448l-13 14h-312z" />
    <glyph glyph-name="uni2198.ss01" horiz-adv-x="675" 
d="M475 32l-32 -32h-364v364l33 33v-313l13 -14l448 447l23 -23l-446 -448l13 -14h312z" />
    <glyph glyph-name="uni2199.ss01" horiz-adv-x="675" 
d="M232 0l-32 32h312l13 14l-446 448l23 23l448 -447l13 14v313l33 -33v-364h-364z" />
    <glyph glyph-name="parenleft.ss01.case" horiz-adv-x="238" 
d="M190 807h42c-108 -137 -148 -287 -148 -450s40 -313 148 -450h-43c-101 137 -139 287 -139 450c0 164 39 313 140 450z" />
    <glyph glyph-name="parenright.ss01.case" horiz-adv-x="238" 
d="M6 807h42c101 -137 140 -286 140 -450c0 -163 -38 -313 -139 -450h-43c108 137 148 287 148 450s-40 313 -148 450z" />
    <glyph glyph-name="bracketleft.ss01.case" horiz-adv-x="258" 
d="M198 -93h-118v900h118v-31h-84v-838h84v-31z" />
    <glyph glyph-name="bracketright.ss01.case" horiz-adv-x="258" 
d="M178 -93h-118v31h84v838h-84v31h118v-900z" />
    <glyph glyph-name="braceleft.ss01.case" horiz-adv-x="337" 
d="M137 366v-18c23 -9 36 -31 36 -91v-215c0 -72 25 -104 94 -104h30v-31h-30c-80 0 -128 35 -128 136v204c0 61 -5 95 -46 95h-13v30h13c41 0 46 34 46 95v204c0 101 48 136 128 136h30v-31h-30c-69 0 -94 -32 -94 -104v-215c0 -60 -13 -82 -36 -91z" />
    <glyph glyph-name="braceright.ss01.case" horiz-adv-x="337" 
d="M200 348v18c-23 9 -36 31 -36 91v215c0 72 -25 104 -94 104h-30v31h30c80 0 128 -35 128 -136v-204c0 -61 5 -95 46 -95h13v-30h-13c-41 0 -46 -34 -46 -95v-204c0 -101 -48 -136 -128 -136h-30v31h30c69 0 94 32 94 104v215c0 60 13 82 36 91z" />
    <glyph glyph-name="guillemotleft.ss01.case" horiz-adv-x="485" 
d="M88 364v-18l179 -187h-42l-173 176v39l170 176h42zM254 364v-18l179 -187h-42l-173 176v39l170 176h42z" />
    <glyph glyph-name="guillemotright.ss01.case" horiz-adv-x="483" 
d="M395 346v18l-177 186h42l171 -175v-39l-171 -177h-42zM229 346v18l-177 186h42l171 -175v-39l-171 -177h-42z" />
    <glyph glyph-name="guilsinglleft.ss01.case" horiz-adv-x="319" 
d="M88 364v-18l179 -187h-42l-173 176v39l170 176h42z" />
    <glyph glyph-name="guilsinglright.ss01.case" horiz-adv-x="319" 
d="M231 346v18l-176 186h42l170 -176v-39l-173 -176h-42z" />
    <glyph glyph-name="endash.ss01.case" horiz-adv-x="621" 
d="M576 351h-532v31h532v-31z" />
    <glyph glyph-name="hyphen.ss01.case" horiz-adv-x="397" 
d="M350 351h-303v31h303v-31z" />
    <glyph glyph-name="emdash.ss01.case" horiz-adv-x="879" 
d="M834 351h-790v31h790v-31z" />
    <glyph glyph-name="emdash.ss01.ss02.case" horiz-adv-x="1444" 
d="M1400 351h-1356v31h1356v-31z" />
    </font>
</defs>
</svg>
